M48
METRIC,LZ,000.000
;FILE_FORMAT=3:3
;TYPE=PLATED
;Layer: Drill PTH
;EasyEDA v6.4.25, 2021-12-21T01:05:14+01:00
;e653898a74aa4a6681cb2481073f5018,cb21f8ab935b4f3d81094f1c1df1cea3,10
;Gerber Generator version 0.2
;Holesize 1 = 0.305 mm
T01C0.305
%
G05
G90
T01
X007620Y009906
X016891Y009271
X008128Y009144
X018415Y009271
X007112Y007620
X009652Y007620
X005715Y006985
X010922Y007620
X056515Y004699
X055118Y008001
X049784Y007992
X051181Y004699
X045847Y004699
X044450Y008001
X042052Y005715
X042037Y006985
X062738Y001778
X019558Y003937
X063723Y001769
X061813Y001751
X026543Y003302
X047117Y008001
X047117Y008601
X063373Y009398
X062555Y009398
X061775Y009398
X057785Y008001
X057785Y008601
X063373Y006858
X062611Y006858
X061849Y006858
X048074Y006178
X048080Y005401
X053378Y006820
X053401Y006131
X053391Y005461
X058674Y006858
X058674Y006070
X058674Y005461
X036576Y008255
X009144Y003302
X036703Y006985
X026734Y007888
X025869Y007876
X027546Y007876
X026733Y009070
X026745Y006809
X028917Y009070
X028930Y007863
X028930Y006809
M30
