G04 Layer: TopSilkLayer*
G04 EasyEDA v6.4.25, 2021-12-21T01:05:14+01:00*
G04 e653898a74aa4a6681cb2481073f5018,cb21f8ab935b4f3d81094f1c1df1cea3,10*
G04 Gerber Generator version 0.2*
G04 Scale: 100 percent, Rotated: No, Reflected: No *
G04 Dimensions in millimeters *
G04 leading zeros omitted , absolute positions ,4 integer and 5 decimal *
%FSLAX45Y45*%
%MOMM*%

%ADD10C,0.2540*%
%ADD25C,0.0800*%
%ADD26C,0.1524*%
%ADD27C,0.3000*%
%ADD28C,0.1520*%

%LPD*%
D28*
X521715Y974344D02*
G01*
X412750Y1016000D01*
X521715Y974344D02*
G01*
X412750Y932942D01*
X449071Y1000505D02*
G01*
X449071Y948436D01*
X521715Y867410D02*
G01*
X516636Y877823D01*
X506221Y888237D01*
X495807Y893318D01*
X480060Y898652D01*
X454152Y898652D01*
X438657Y893318D01*
X428244Y888237D01*
X417829Y877823D01*
X412750Y867410D01*
X412750Y846581D01*
X417829Y836168D01*
X428244Y825754D01*
X438657Y820673D01*
X454152Y815339D01*
X480060Y815339D01*
X495807Y820673D01*
X506221Y825754D01*
X516636Y836168D01*
X521715Y846581D01*
X521715Y867410D01*
X521715Y762000D02*
G01*
X412750Y762000D01*
X521715Y762000D02*
G01*
X521715Y715263D01*
X516636Y699770D01*
X511302Y694436D01*
X500887Y689355D01*
X490473Y689355D01*
X480060Y694436D01*
X474979Y699770D01*
X469900Y715263D01*
X469900Y762000D02*
G01*
X469900Y715263D01*
X464565Y699770D01*
X459486Y694436D01*
X449071Y689355D01*
X433323Y689355D01*
X422910Y694436D01*
X417829Y699770D01*
X412750Y715263D01*
X412750Y762000D01*
X521715Y623823D02*
G01*
X516636Y634237D01*
X506221Y644652D01*
X495807Y649731D01*
X480060Y655065D01*
X454152Y655065D01*
X438657Y649731D01*
X428244Y644652D01*
X417829Y634237D01*
X412750Y623823D01*
X412750Y602995D01*
X417829Y592581D01*
X428244Y582168D01*
X438657Y577087D01*
X454152Y571754D01*
X480060Y571754D01*
X495807Y577087D01*
X506221Y582168D01*
X516636Y592581D01*
X521715Y602995D01*
X521715Y623823D01*
X521715Y440944D02*
G01*
X412750Y482600D01*
X521715Y440944D02*
G01*
X412750Y399542D01*
X449071Y467105D02*
G01*
X449071Y415036D01*
X521715Y365252D02*
G01*
X412750Y365252D01*
X521715Y241300D02*
G01*
X412750Y241300D01*
X521715Y241300D02*
G01*
X521715Y194563D01*
X516636Y179070D01*
X511302Y173736D01*
X500887Y168655D01*
X490473Y168655D01*
X480060Y173736D01*
X474979Y179070D01*
X469900Y194563D01*
X469900Y241300D02*
G01*
X469900Y194563D01*
X464565Y179070D01*
X459486Y173736D01*
X449071Y168655D01*
X433323Y168655D01*
X422910Y173736D01*
X417829Y179070D01*
X412750Y194563D01*
X412750Y241300D01*
X521715Y134365D02*
G01*
X412750Y134365D01*
X5967984Y901700D02*
G01*
X6076950Y901700D01*
X5967984Y901700D02*
G01*
X5967984Y948436D01*
X5973063Y963929D01*
X5978397Y969263D01*
X5988811Y974344D01*
X5999225Y974344D01*
X6009640Y969263D01*
X6014720Y963929D01*
X6019800Y948436D01*
X6019800Y901700D01*
X6019800Y938021D02*
G01*
X6076950Y974344D01*
X6006591Y458978D02*
G01*
X5996177Y453644D01*
X5985763Y443229D01*
X5980684Y433070D01*
X5980684Y412242D01*
X5985763Y401828D01*
X5996177Y391413D01*
X6006591Y386079D01*
X6022340Y381000D01*
X6048247Y381000D01*
X6063741Y386079D01*
X6074156Y391413D01*
X6084570Y401828D01*
X6089650Y412242D01*
X6089650Y433070D01*
X6084570Y443229D01*
X6074156Y453644D01*
X6063741Y458978D01*
X6048247Y458978D01*
X6048247Y433070D02*
G01*
X6048247Y458978D01*
X5955284Y647700D02*
G01*
X6064250Y647700D01*
X5955284Y647700D02*
G01*
X5955284Y694436D01*
X5960363Y709929D01*
X5965697Y715263D01*
X5976111Y720344D01*
X5986525Y720344D01*
X5996940Y715263D01*
X6002020Y709929D01*
X6007100Y694436D01*
X6007100Y647700D02*
G01*
X6007100Y694436D01*
X6012434Y709929D01*
X6017513Y715263D01*
X6027927Y720344D01*
X6043675Y720344D01*
X6054090Y715263D01*
X6059170Y709929D01*
X6064250Y694436D01*
X6064250Y647700D01*
X6001511Y76200D02*
G01*
X5996177Y86613D01*
X5980684Y102107D01*
X6089650Y102107D01*
X6006591Y141731D02*
G01*
X6001511Y141731D01*
X5991097Y146812D01*
X5985763Y152145D01*
X5980684Y162560D01*
X5980684Y183134D01*
X5985763Y193547D01*
X5991097Y198881D01*
X6001511Y203962D01*
X6011925Y203962D01*
X6022340Y198881D01*
X6037834Y188468D01*
X6089650Y136397D01*
X6089650Y209295D01*
X5980684Y243586D02*
G01*
X6089650Y284987D01*
X5980684Y326644D02*
G01*
X6089650Y284987D01*
X2438400Y1042415D02*
G01*
X2464308Y933450D01*
X2490470Y1042415D02*
G01*
X2464308Y933450D01*
X2490470Y1042415D02*
G01*
X2516377Y933450D01*
X2542286Y1042415D02*
G01*
X2516377Y933450D01*
X2576575Y1042415D02*
G01*
X2581909Y1037336D01*
X2586990Y1042415D01*
X2581909Y1047750D01*
X2576575Y1042415D01*
X2581909Y1006094D02*
G01*
X2581909Y933450D01*
X2621279Y1006094D02*
G01*
X2621279Y933450D01*
X2621279Y985265D02*
G01*
X2636774Y1000760D01*
X2647188Y1006094D01*
X2662936Y1006094D01*
X2673350Y1000760D01*
X2678429Y985265D01*
X2678429Y933450D01*
X2774950Y1042415D02*
G01*
X2774950Y933450D01*
X2774950Y990600D02*
G01*
X2764790Y1000760D01*
X2754375Y1006094D01*
X2738627Y1006094D01*
X2728213Y1000760D01*
X2717800Y990600D01*
X2712720Y974852D01*
X2712720Y964437D01*
X2717800Y948944D01*
X2728213Y938529D01*
X2738627Y933450D01*
X2754375Y933450D01*
X2764790Y938529D01*
X2774950Y948944D01*
X2835402Y1006094D02*
G01*
X2824988Y1000760D01*
X2814574Y990600D01*
X2809240Y974852D01*
X2809240Y964437D01*
X2814574Y948944D01*
X2824988Y938529D01*
X2835402Y933450D01*
X2850895Y933450D01*
X2861309Y938529D01*
X2871724Y948944D01*
X2876804Y964437D01*
X2876804Y974852D01*
X2871724Y990600D01*
X2861309Y1000760D01*
X2850895Y1006094D01*
X2835402Y1006094D01*
X2911093Y1006094D02*
G01*
X2931922Y933450D01*
X2952750Y1006094D02*
G01*
X2931922Y933450D01*
X2952750Y1006094D02*
G01*
X2973577Y933450D01*
X2994406Y1006094D02*
G01*
X2973577Y933450D01*
X3186429Y1016507D02*
G01*
X3181350Y1026921D01*
X3170936Y1037336D01*
X3160522Y1042415D01*
X3139693Y1042415D01*
X3129279Y1037336D01*
X3119120Y1026921D01*
X3113786Y1016507D01*
X3108706Y1000760D01*
X3108706Y974852D01*
X3113786Y959357D01*
X3119120Y948944D01*
X3129279Y938529D01*
X3139693Y933450D01*
X3160522Y933450D01*
X3170936Y938529D01*
X3181350Y948944D01*
X3186429Y959357D01*
X3246881Y1006094D02*
G01*
X3236468Y1000760D01*
X3226054Y990600D01*
X3220720Y974852D01*
X3220720Y964437D01*
X3226054Y948944D01*
X3236468Y938529D01*
X3246881Y933450D01*
X3262375Y933450D01*
X3272790Y938529D01*
X3283204Y948944D01*
X3288284Y964437D01*
X3288284Y974852D01*
X3283204Y990600D01*
X3272790Y1000760D01*
X3262375Y1006094D01*
X3246881Y1006094D01*
X3322574Y1006094D02*
G01*
X3322574Y933450D01*
X3322574Y985265D02*
G01*
X3338322Y1000760D01*
X3348736Y1006094D01*
X3364229Y1006094D01*
X3374643Y1000760D01*
X3379724Y985265D01*
X3379724Y933450D01*
X3429761Y1042415D02*
G01*
X3429761Y954023D01*
X3434841Y938529D01*
X3445256Y933450D01*
X3455670Y933450D01*
X3414013Y1006094D02*
G01*
X3450590Y1006094D01*
X3489959Y1006094D02*
G01*
X3489959Y933450D01*
X3489959Y974852D02*
G01*
X3495040Y990600D01*
X3505454Y1000760D01*
X3515868Y1006094D01*
X3531615Y1006094D01*
X3591813Y1006094D02*
G01*
X3581400Y1000760D01*
X3570986Y990600D01*
X3565906Y974852D01*
X3565906Y964437D01*
X3570986Y948944D01*
X3581400Y938529D01*
X3591813Y933450D01*
X3607308Y933450D01*
X3617722Y938529D01*
X3628136Y948944D01*
X3633470Y964437D01*
X3633470Y974852D01*
X3628136Y990600D01*
X3617722Y1000760D01*
X3607308Y1006094D01*
X3591813Y1006094D01*
X3667759Y1042415D02*
G01*
X3667759Y933450D01*
X3702050Y1042415D02*
G01*
X3702050Y933450D01*
X3736340Y974852D02*
G01*
X3798570Y974852D01*
X3798570Y985265D01*
X3793490Y995679D01*
X3788156Y1000760D01*
X3777741Y1006094D01*
X3762247Y1006094D01*
X3751834Y1000760D01*
X3741420Y990600D01*
X3736340Y974852D01*
X3736340Y964437D01*
X3741420Y948944D01*
X3751834Y938529D01*
X3762247Y933450D01*
X3777741Y933450D01*
X3788156Y938529D01*
X3798570Y948944D01*
X3832859Y1006094D02*
G01*
X3832859Y933450D01*
X3832859Y974852D02*
G01*
X3837940Y990600D01*
X3848354Y1000760D01*
X3858768Y1006094D01*
X3874515Y1006094D01*
X3988815Y1042415D02*
G01*
X4030218Y933450D01*
X4071874Y1042415D02*
G01*
X4030218Y933450D01*
X4111243Y1016507D02*
G01*
X4111243Y1021587D01*
X4116577Y1032002D01*
X4121658Y1037336D01*
X4132072Y1042415D01*
X4152900Y1042415D01*
X4163313Y1037336D01*
X4168393Y1032002D01*
X4173727Y1021587D01*
X4173727Y1011173D01*
X4168393Y1000760D01*
X4157979Y985265D01*
X4106163Y933450D01*
X4178808Y933450D01*
D26*
X2959100Y62484D02*
G01*
X2959100Y140462D01*
X2954020Y155955D01*
X2943606Y166370D01*
X2927858Y171450D01*
X2917443Y171450D01*
X2901950Y166370D01*
X2891536Y155955D01*
X2886456Y140462D01*
X2886456Y62484D01*
X2789681Y62484D02*
G01*
X2841752Y62484D01*
X2846831Y109220D01*
X2841752Y104139D01*
X2826004Y98805D01*
X2810509Y98805D01*
X2795015Y104139D01*
X2784602Y114300D01*
X2779268Y130047D01*
X2779268Y140462D01*
X2784602Y155955D01*
X2795015Y166370D01*
X2810509Y171450D01*
X2826004Y171450D01*
X2841752Y166370D01*
X2846831Y161289D01*
X2852165Y150876D01*
X1052321Y736092D02*
G01*
X1057655Y725678D01*
X1068070Y715263D01*
X1078229Y710184D01*
X1099057Y710184D01*
X1109471Y715263D01*
X1119886Y725678D01*
X1125220Y736092D01*
X1130300Y751839D01*
X1130300Y777747D01*
X1125220Y793242D01*
X1119886Y803655D01*
X1109471Y814070D01*
X1099057Y819150D01*
X1078229Y819150D01*
X1068070Y814070D01*
X1057655Y803655D01*
X1052321Y793242D01*
X1012952Y736092D02*
G01*
X1012952Y731012D01*
X1007618Y720597D01*
X1002537Y715263D01*
X992123Y710184D01*
X971295Y710184D01*
X960881Y715263D01*
X955802Y720597D01*
X950468Y731012D01*
X950468Y741426D01*
X955802Y751839D01*
X966215Y767334D01*
X1018031Y819150D01*
X945387Y819150D01*
X4666734Y1055118D02*
G01*
X4656320Y1050038D01*
X4645906Y1039624D01*
X4640572Y1029210D01*
X4635492Y1013462D01*
X4635492Y987554D01*
X4640572Y972060D01*
X4645906Y961646D01*
X4656320Y951232D01*
X4666734Y946152D01*
X4687562Y946152D01*
X4697722Y951232D01*
X4708136Y961646D01*
X4713470Y972060D01*
X4718550Y987554D01*
X4718550Y1013462D01*
X4713470Y1029210D01*
X4708136Y1039624D01*
X4697722Y1050038D01*
X4687562Y1055118D01*
X4666734Y1055118D01*
X4682228Y966726D02*
G01*
X4713470Y935738D01*
X4752840Y1034290D02*
G01*
X4763254Y1039624D01*
X4779002Y1055118D01*
X4779002Y946152D01*
X5174744Y1055123D02*
G01*
X5164330Y1050043D01*
X5153916Y1039629D01*
X5148582Y1029215D01*
X5143502Y1013467D01*
X5143502Y987559D01*
X5148582Y972065D01*
X5153916Y961651D01*
X5164330Y951237D01*
X5174744Y946157D01*
X5195572Y946157D01*
X5205732Y951237D01*
X5216146Y961651D01*
X5221480Y972065D01*
X5226560Y987559D01*
X5226560Y1013467D01*
X5221480Y1029215D01*
X5216146Y1039629D01*
X5205732Y1050043D01*
X5195572Y1055123D01*
X5174744Y1055123D01*
X5190238Y966731D02*
G01*
X5221480Y935743D01*
X5266184Y1029215D02*
G01*
X5266184Y1034295D01*
X5271264Y1044709D01*
X5276598Y1050043D01*
X5287012Y1055123D01*
X5307586Y1055123D01*
X5318000Y1050043D01*
X5323334Y1044709D01*
X5328414Y1034295D01*
X5328414Y1023881D01*
X5323334Y1013467D01*
X5312920Y997973D01*
X5260850Y946157D01*
X5333748Y946157D01*
X5708144Y1055123D02*
G01*
X5697730Y1050043D01*
X5687316Y1039629D01*
X5681982Y1029215D01*
X5676902Y1013467D01*
X5676902Y987559D01*
X5681982Y972065D01*
X5687316Y961651D01*
X5697730Y951237D01*
X5708144Y946157D01*
X5728972Y946157D01*
X5739132Y951237D01*
X5749546Y961651D01*
X5754880Y972065D01*
X5759960Y987559D01*
X5759960Y1013467D01*
X5754880Y1029215D01*
X5749546Y1039629D01*
X5739132Y1050043D01*
X5728972Y1055123D01*
X5708144Y1055123D01*
X5723638Y966731D02*
G01*
X5754880Y935743D01*
X5856734Y1055123D02*
G01*
X5804664Y1055123D01*
X5799584Y1008387D01*
X5804664Y1013467D01*
X5820412Y1018801D01*
X5835906Y1018801D01*
X5851400Y1013467D01*
X5861814Y1003307D01*
X5867148Y987559D01*
X5867148Y977145D01*
X5861814Y961651D01*
X5851400Y951237D01*
X5835906Y946157D01*
X5820412Y946157D01*
X5804664Y951237D01*
X5799584Y956317D01*
X5794250Y966731D01*
X5174744Y153423D02*
G01*
X5164330Y148343D01*
X5153916Y137929D01*
X5148582Y127515D01*
X5143502Y111767D01*
X5143502Y85859D01*
X5148582Y70365D01*
X5153916Y59951D01*
X5164330Y49537D01*
X5174744Y44457D01*
X5195572Y44457D01*
X5205732Y49537D01*
X5216146Y59951D01*
X5221480Y70365D01*
X5226560Y85859D01*
X5226560Y111767D01*
X5221480Y127515D01*
X5216146Y137929D01*
X5205732Y148343D01*
X5195572Y153423D01*
X5174744Y153423D01*
X5190238Y65031D02*
G01*
X5221480Y34043D01*
X5271264Y153423D02*
G01*
X5328414Y153423D01*
X5297172Y111767D01*
X5312920Y111767D01*
X5323334Y106687D01*
X5328414Y101607D01*
X5333748Y85859D01*
X5333748Y75445D01*
X5328414Y59951D01*
X5318000Y49537D01*
X5302506Y44457D01*
X5287012Y44457D01*
X5271264Y49537D01*
X5266184Y54617D01*
X5260850Y65031D01*
X4654044Y153423D02*
G01*
X4643630Y148343D01*
X4633216Y137929D01*
X4627882Y127515D01*
X4622802Y111767D01*
X4622802Y85859D01*
X4627882Y70365D01*
X4633216Y59951D01*
X4643630Y49537D01*
X4654044Y44457D01*
X4674872Y44457D01*
X4685032Y49537D01*
X4695446Y59951D01*
X4700780Y70365D01*
X4705860Y85859D01*
X4705860Y111767D01*
X4700780Y127515D01*
X4695446Y137929D01*
X4685032Y148343D01*
X4674872Y153423D01*
X4654044Y153423D01*
X4669538Y65031D02*
G01*
X4700780Y34043D01*
X4792220Y153423D02*
G01*
X4740150Y80779D01*
X4818128Y80779D01*
X4792220Y153423D02*
G01*
X4792220Y44457D01*
X5720844Y153423D02*
G01*
X5710430Y148343D01*
X5700016Y137929D01*
X5694682Y127515D01*
X5689602Y111767D01*
X5689602Y85859D01*
X5694682Y70365D01*
X5700016Y59951D01*
X5710430Y49537D01*
X5720844Y44457D01*
X5741672Y44457D01*
X5751832Y49537D01*
X5762246Y59951D01*
X5767580Y70365D01*
X5772660Y85859D01*
X5772660Y111767D01*
X5767580Y127515D01*
X5762246Y137929D01*
X5751832Y148343D01*
X5741672Y153423D01*
X5720844Y153423D01*
X5736338Y65031D02*
G01*
X5767580Y34043D01*
X5869434Y137929D02*
G01*
X5864100Y148343D01*
X5848606Y153423D01*
X5838192Y153423D01*
X5822698Y148343D01*
X5812284Y132595D01*
X5806950Y106687D01*
X5806950Y80779D01*
X5812284Y59951D01*
X5822698Y49537D01*
X5838192Y44457D01*
X5843272Y44457D01*
X5859020Y49537D01*
X5869434Y59951D01*
X5874514Y75445D01*
X5874514Y80779D01*
X5869434Y96273D01*
X5859020Y106687D01*
X5843272Y111767D01*
X5838192Y111767D01*
X5822698Y106687D01*
X5812284Y96273D01*
X5806950Y80779D01*
X4165600Y280415D02*
G01*
X4165600Y202437D01*
X4170679Y186944D01*
X4181093Y176529D01*
X4196841Y171450D01*
X4207256Y171450D01*
X4222750Y176529D01*
X4233163Y186944D01*
X4238243Y202437D01*
X4238243Y280415D01*
X4272534Y259587D02*
G01*
X4282947Y264921D01*
X4298695Y280415D01*
X4298695Y171450D01*
X596900Y928115D02*
G01*
X596900Y850137D01*
X601979Y834644D01*
X612394Y824229D01*
X628142Y819150D01*
X638555Y819150D01*
X654050Y824229D01*
X664463Y834644D01*
X669544Y850137D01*
X669544Y928115D01*
X709168Y902207D02*
G01*
X709168Y907287D01*
X714247Y917702D01*
X719581Y923036D01*
X729995Y928115D01*
X750570Y928115D01*
X760984Y923036D01*
X766318Y917702D01*
X771397Y907287D01*
X771397Y896873D01*
X766318Y886460D01*
X755904Y870965D01*
X703834Y819150D01*
X776731Y819150D01*
X1384300Y966215D02*
G01*
X1384300Y888237D01*
X1389379Y872744D01*
X1399794Y862329D01*
X1415542Y857250D01*
X1425955Y857250D01*
X1441450Y862329D01*
X1451863Y872744D01*
X1456944Y888237D01*
X1456944Y966215D01*
X1501647Y966215D02*
G01*
X1558797Y966215D01*
X1527810Y924560D01*
X1543304Y924560D01*
X1553718Y919479D01*
X1558797Y914400D01*
X1564131Y898652D01*
X1564131Y888237D01*
X1558797Y872744D01*
X1548384Y862329D01*
X1532889Y857250D01*
X1517395Y857250D01*
X1501647Y862329D01*
X1496568Y867410D01*
X1491234Y877823D01*
D25*
X2345900Y635000D02*
G01*
X2345527Y474979D01*
X2447409Y635000D02*
G01*
X2132449Y635000D01*
X2449949Y474979D02*
G01*
X2129909Y474979D01*
D26*
X3098739Y898921D02*
G01*
X3098739Y218678D01*
X2819460Y218678D01*
X2819460Y898921D01*
X3098739Y898921D01*
D10*
X620422Y685101D02*
G01*
X700425Y685101D01*
X589437Y574126D02*
G01*
X589437Y654123D01*
X731403Y574126D02*
G01*
X731403Y654123D01*
X588855Y516536D02*
G01*
X588855Y436537D01*
X619838Y405554D02*
G01*
X699836Y405554D01*
X730816Y516536D02*
G01*
X730816Y436537D01*
X1357022Y685101D02*
G01*
X1437025Y685101D01*
X1326037Y574126D02*
G01*
X1326037Y654123D01*
X1468003Y574126D02*
G01*
X1468003Y654123D01*
X1325455Y516536D02*
G01*
X1325455Y436537D01*
X1356438Y405554D02*
G01*
X1436436Y405554D01*
X1467416Y516536D02*
G01*
X1467416Y436537D01*
X2425001Y827377D02*
G01*
X2425001Y747374D01*
X2314026Y858362D02*
G01*
X2394023Y858362D01*
X2314026Y716396D02*
G01*
X2394023Y716396D01*
X2256436Y858944D02*
G01*
X2176437Y858944D01*
X2145454Y827961D02*
G01*
X2145454Y747963D01*
X2256436Y716983D02*
G01*
X2176437Y716983D01*
X2425001Y370177D02*
G01*
X2425001Y290174D01*
X2314026Y401162D02*
G01*
X2394023Y401162D01*
X2314026Y259196D02*
G01*
X2394023Y259196D01*
X2256436Y401744D02*
G01*
X2176437Y401744D01*
X2145454Y370761D02*
G01*
X2145454Y290763D01*
X2256436Y259783D02*
G01*
X2176437Y259783D01*
D26*
X4865321Y649000D02*
G01*
X4865321Y824240D01*
X4761161Y824240D01*
X4558083Y649000D02*
G01*
X4558083Y824240D01*
X4662243Y824240D01*
X4757242Y649000D02*
G01*
X4666162Y649000D01*
X5398721Y649000D02*
G01*
X5398721Y824240D01*
X5294561Y824240D01*
X5091483Y649000D02*
G01*
X5091483Y824240D01*
X5195643Y824240D01*
X5290642Y649000D02*
G01*
X5199562Y649000D01*
X5932121Y649000D02*
G01*
X5932121Y824240D01*
X5827961Y824240D01*
X5624883Y649000D02*
G01*
X5624883Y824240D01*
X5729043Y824240D01*
X5824042Y649000D02*
G01*
X5732962Y649000D01*
X5397723Y270286D02*
G01*
X5397723Y415528D01*
X5294561Y415528D01*
X5092481Y270286D02*
G01*
X5092481Y415528D01*
X5195643Y415528D01*
X5290642Y270286D02*
G01*
X5199562Y270286D01*
X4864320Y270278D02*
G01*
X4864320Y415521D01*
X4761158Y415521D01*
X4559079Y270278D02*
G01*
X4559079Y415521D01*
X4662241Y415521D01*
X4757239Y270278D02*
G01*
X4666160Y270278D01*
X5931123Y270286D02*
G01*
X5931123Y415528D01*
X5827961Y415528D01*
X5625881Y270286D02*
G01*
X5625881Y415528D01*
X5729043Y415528D01*
X5824042Y270286D02*
G01*
X5732962Y270286D01*
X986078Y993160D02*
G01*
X890191Y993160D01*
X890191Y861039D01*
X986078Y861039D01*
X1071321Y993160D02*
G01*
X1167208Y993160D01*
X1167208Y861039D01*
X1071321Y861039D01*
X1722678Y993160D02*
G01*
X1626791Y993160D01*
X1626791Y861039D01*
X1722678Y861039D01*
X1807921Y993160D02*
G01*
X1903808Y993160D01*
X1903808Y861039D01*
X1807921Y861039D01*
X4378942Y681286D02*
G01*
X4378942Y585398D01*
X4511062Y585398D01*
X4511062Y681286D01*
X4378942Y766528D02*
G01*
X4378942Y862416D01*
X4511062Y862416D01*
X4511062Y766528D01*
X4378942Y325686D02*
G01*
X4378942Y229798D01*
X4511062Y229798D01*
X4511062Y325686D01*
X4378942Y410928D02*
G01*
X4378942Y506816D01*
X4511062Y506816D01*
X4511062Y410928D01*
X4912342Y325686D02*
G01*
X4912342Y229798D01*
X5044462Y229798D01*
X5044462Y325686D01*
X4912342Y410928D02*
G01*
X4912342Y506816D01*
X5044462Y506816D01*
X5044462Y410928D01*
X4912342Y681286D02*
G01*
X4912342Y585398D01*
X5044462Y585398D01*
X5044462Y681286D01*
X4912342Y766528D02*
G01*
X4912342Y862416D01*
X5044462Y862416D01*
X5044462Y766528D01*
X5445742Y325686D02*
G01*
X5445742Y229798D01*
X5577862Y229798D01*
X5577862Y325686D01*
X5445742Y410928D02*
G01*
X5445742Y506816D01*
X5577862Y506816D01*
X5577862Y410928D01*
X5445742Y681286D02*
G01*
X5445742Y585398D01*
X5577862Y585398D01*
X5577862Y681286D01*
X5445742Y766528D02*
G01*
X5445742Y862416D01*
X5577862Y862416D01*
X5577862Y766528D01*
X4089140Y377380D02*
G01*
X3784859Y377380D01*
X3784859Y892619D01*
X4089140Y892619D01*
X4089140Y377380D01*
X771080Y305059D02*
G01*
X771080Y609340D01*
X1286319Y609340D01*
X1286319Y305059D01*
X771080Y305059D01*
X1507680Y305059D02*
G01*
X1507680Y609340D01*
X2022919Y609340D01*
X2022919Y305059D01*
X1507680Y305059D01*
D10*
X3797998Y226722D02*
G01*
X3797998Y306725D01*
X3908973Y195737D02*
G01*
X3828976Y195737D01*
X3908973Y337703D02*
G01*
X3828976Y337703D01*
X3966563Y195155D02*
G01*
X4046562Y195155D01*
X4077545Y226138D02*
G01*
X4077545Y306136D01*
X3966563Y337116D02*
G01*
X4046562Y337116D01*
G75*
G01*
X619839Y405549D02*
G02*
X588856Y436532I0J30983D01*
G75*
G01*
X730822Y436532D02*
G02*
X699836Y405549I-30983J0D01*
G75*
G01*
X589437Y654119D02*
G02*
X620423Y685101I30983J0D01*
G75*
G01*
X700420Y685101D02*
G02*
X731403Y654119I0J-30982D01*
G75*
G01*
X1356439Y405549D02*
G02*
X1325456Y436532I0J30983D01*
G75*
G01*
X1467422Y436532D02*
G02*
X1436436Y405549I-30983J0D01*
G75*
G01*
X1326037Y654119D02*
G02*
X1357023Y685101I30983J0D01*
G75*
G01*
X1437020Y685101D02*
G02*
X1468003Y654119I0J-30982D01*
G75*
G01*
X2145449Y827961D02*
G02*
X2176432Y858944I30983J0D01*
G75*
G01*
X2176432Y716978D02*
G02*
X2145449Y747964I0J30983D01*
G75*
G01*
X2394019Y858363D02*
G02*
X2425001Y827377I0J-30983D01*
G75*
G01*
X2425001Y747380D02*
G02*
X2394019Y716397I-30982J0D01*
G75*
G01*
X2145449Y370761D02*
G02*
X2176432Y401744I30983J0D01*
G75*
G01*
X2176432Y259778D02*
G02*
X2145449Y290764I0J30983D01*
G75*
G01*
X2394019Y401163D02*
G02*
X2425001Y370177I0J-30983D01*
G75*
G01*
X2425001Y290180D02*
G02*
X2394019Y259197I-30982J0D01*
G75*
G01*
X4077551Y226139D02*
G02*
X4046568Y195156I-30983J0D01*
G75*
G01*
X4046568Y337122D02*
G02*
X4077551Y306136I0J-30983D01*
G75*
G01*
X3828981Y195737D02*
G02*
X3797999Y226723I0J30983D01*
G75*
G01*
X3797999Y306720D02*
G02*
X3828981Y337703I30982J0D01*
D27*
G75*
G01
X4028923Y444500D02*
G03X4028923Y444500I-15011J0D01*
G75*
G01
X4220261Y367767D02*
G03X4220261Y367767I-15011J0D01*
G75*
G01
X853211Y380289D02*
G03X853211Y380289I-15011J0D01*
G75*
G01
X776478Y188951D02*
G03X776478Y188951I-15011J0D01*
G75*
G01
X1589811Y380289D02*
G03X1589811Y380289I-15011J0D01*
G75*
G01
X1513078Y188951D02*
G03X1513078Y188951I-15011J0D01*
M02*
