G04 Layer: TopPasteMaskLayer*
G04 EasyEDA v6.4.25, 2021-12-21T01:05:14+01:00*
G04 e653898a74aa4a6681cb2481073f5018,cb21f8ab935b4f3d81094f1c1df1cea3,10*
G04 Gerber Generator version 0.2*
G04 Scale: 100 percent, Rotated: No, Reflected: No *
G04 Dimensions in millimeters *
G04 leading zeros omitted , absolute positions ,4 integer and 5 decimal *
%FSLAX45Y45*%
%MOMM*%

%ADD12C,1.8000*%
%ADD13C,0.6300*%
%ADD15R,1.5000X1.3589*%
%ADD18R,0.9000X0.8000*%
%ADD19R,0.8000X0.9000*%
%ADD20R,0.6000X1.0700*%
%ADD21R,0.7000X1.2500*%

%LPD*%
G36*
X909218Y972108D02*
G01*
X904189Y967079D01*
X904189Y887120D01*
X909218Y882091D01*
X989177Y882091D01*
X994206Y887120D01*
X994206Y909878D01*
X957173Y909878D01*
X957173Y942898D01*
X994206Y942898D01*
X994206Y967079D01*
X989177Y972108D01*
G37*
G36*
X1069187Y972108D02*
G01*
X1064209Y967079D01*
X1064209Y942898D01*
X1102207Y942898D01*
X1102207Y909878D01*
X1064209Y909878D01*
X1064209Y887120D01*
X1069187Y882091D01*
X1148181Y882091D01*
X1153210Y887120D01*
X1153210Y967079D01*
X1148181Y972108D01*
G37*
G36*
X1645818Y972108D02*
G01*
X1640789Y967079D01*
X1640789Y887120D01*
X1645818Y882091D01*
X1725777Y882091D01*
X1730806Y887120D01*
X1730806Y909878D01*
X1693773Y909878D01*
X1693773Y942898D01*
X1730806Y942898D01*
X1730806Y967079D01*
X1725777Y972108D01*
G37*
G36*
X1805787Y972108D02*
G01*
X1800809Y967079D01*
X1800809Y942898D01*
X1838807Y942898D01*
X1838807Y909878D01*
X1800809Y909878D01*
X1800809Y887120D01*
X1805787Y882091D01*
X1884781Y882091D01*
X1889810Y887120D01*
X1889810Y967079D01*
X1884781Y972108D01*
G37*
G36*
X4405020Y689406D02*
G01*
X4399991Y684428D01*
X4399991Y604418D01*
X4405020Y599389D01*
X4484979Y599389D01*
X4490008Y604418D01*
X4490008Y684428D01*
X4484979Y689406D01*
X4462221Y689406D01*
X4462221Y652424D01*
X4429201Y652424D01*
X4429201Y689406D01*
G37*
G36*
X4405020Y848410D02*
G01*
X4399991Y843381D01*
X4399991Y764387D01*
X4405020Y759409D01*
X4429201Y759409D01*
X4429201Y797407D01*
X4462221Y797407D01*
X4462221Y759409D01*
X4484979Y759409D01*
X4490008Y764387D01*
X4490008Y843381D01*
X4484979Y848410D01*
G37*
G36*
X4405020Y333806D02*
G01*
X4399991Y328828D01*
X4399991Y248818D01*
X4405020Y243789D01*
X4484979Y243789D01*
X4490008Y248818D01*
X4490008Y328828D01*
X4484979Y333806D01*
X4462221Y333806D01*
X4462221Y296824D01*
X4429201Y296824D01*
X4429201Y333806D01*
G37*
G36*
X4405020Y492810D02*
G01*
X4399991Y487781D01*
X4399991Y408787D01*
X4405020Y403809D01*
X4429201Y403809D01*
X4429201Y441807D01*
X4462221Y441807D01*
X4462221Y403809D01*
X4484979Y403809D01*
X4490008Y408787D01*
X4490008Y487781D01*
X4484979Y492810D01*
G37*
G36*
X4938420Y333806D02*
G01*
X4933391Y328828D01*
X4933391Y248818D01*
X4938420Y243789D01*
X5018379Y243789D01*
X5023408Y248818D01*
X5023408Y328828D01*
X5018379Y333806D01*
X4995621Y333806D01*
X4995621Y296824D01*
X4962601Y296824D01*
X4962601Y333806D01*
G37*
G36*
X4938420Y492810D02*
G01*
X4933391Y487781D01*
X4933391Y408787D01*
X4938420Y403809D01*
X4962601Y403809D01*
X4962601Y441807D01*
X4995621Y441807D01*
X4995621Y403809D01*
X5018379Y403809D01*
X5023408Y408787D01*
X5023408Y487781D01*
X5018379Y492810D01*
G37*
G36*
X4938420Y689406D02*
G01*
X4933391Y684428D01*
X4933391Y604418D01*
X4938420Y599389D01*
X5018379Y599389D01*
X5023408Y604418D01*
X5023408Y684428D01*
X5018379Y689406D01*
X4995621Y689406D01*
X4995621Y652424D01*
X4962601Y652424D01*
X4962601Y689406D01*
G37*
G36*
X4938420Y848410D02*
G01*
X4933391Y843381D01*
X4933391Y764387D01*
X4938420Y759409D01*
X4962601Y759409D01*
X4962601Y797407D01*
X4995621Y797407D01*
X4995621Y759409D01*
X5018379Y759409D01*
X5023408Y764387D01*
X5023408Y843381D01*
X5018379Y848410D01*
G37*
G36*
X5471820Y333806D02*
G01*
X5466791Y328828D01*
X5466791Y248818D01*
X5471820Y243789D01*
X5551779Y243789D01*
X5556808Y248818D01*
X5556808Y328828D01*
X5551779Y333806D01*
X5529021Y333806D01*
X5529021Y296824D01*
X5496001Y296824D01*
X5496001Y333806D01*
G37*
G36*
X5471820Y492810D02*
G01*
X5466791Y487781D01*
X5466791Y408787D01*
X5471820Y403809D01*
X5496001Y403809D01*
X5496001Y441807D01*
X5529021Y441807D01*
X5529021Y403809D01*
X5551779Y403809D01*
X5556808Y408787D01*
X5556808Y487781D01*
X5551779Y492810D01*
G37*
G36*
X5471820Y689406D02*
G01*
X5466791Y684428D01*
X5466791Y604418D01*
X5471820Y599389D01*
X5551779Y599389D01*
X5556808Y604418D01*
X5556808Y684428D01*
X5551779Y689406D01*
X5529021Y689406D01*
X5529021Y652424D01*
X5496001Y652424D01*
X5496001Y689406D01*
G37*
G36*
X5471820Y848410D02*
G01*
X5466791Y843381D01*
X5466791Y764387D01*
X5471820Y759409D01*
X5496001Y759409D01*
X5496001Y797407D01*
X5529021Y797407D01*
X5529021Y759409D01*
X5551779Y759409D01*
X5556808Y764387D01*
X5556808Y843381D01*
X5551779Y848410D01*
G37*
D12*
X168600Y190500D02*
G01*
X288599Y190500D01*
X168600Y431800D02*
G01*
X288599Y431800D01*
X168600Y673100D02*
G01*
X288599Y673100D01*
X168600Y914400D02*
G01*
X288599Y914400D01*
X6201100Y939800D02*
G01*
X6321099Y939800D01*
X6213800Y431800D02*
G01*
X6333799Y431800D01*
X6201100Y685800D02*
G01*
X6321099Y685800D01*
X6213800Y177800D02*
G01*
X6333799Y177800D01*
D13*
X4143499Y444500D02*
G01*
X4266999Y444500D01*
X4143499Y571500D02*
G01*
X4266999Y571500D01*
X4143499Y698500D02*
G01*
X4266999Y698500D01*
X4143499Y825500D02*
G01*
X4266999Y825500D01*
X3607000Y444500D02*
G01*
X3730500Y444500D01*
X3607000Y571500D02*
G01*
X3730500Y571500D01*
X3607000Y698500D02*
G01*
X3730500Y698500D01*
X3607000Y825500D02*
G01*
X3730500Y825500D01*
X838200Y250700D02*
G01*
X838200Y127200D01*
X965200Y250700D02*
G01*
X965200Y127200D01*
X1092200Y250700D02*
G01*
X1092200Y127200D01*
X1219200Y250700D02*
G01*
X1219200Y127200D01*
X838200Y787199D02*
G01*
X838200Y663699D01*
X965200Y787199D02*
G01*
X965200Y663699D01*
X1092200Y787199D02*
G01*
X1092200Y663699D01*
X1219200Y787199D02*
G01*
X1219200Y663699D01*
X1574800Y250700D02*
G01*
X1574800Y127200D01*
X1701800Y250700D02*
G01*
X1701800Y127200D01*
X1828800Y250700D02*
G01*
X1828800Y127200D01*
X1955800Y250700D02*
G01*
X1955800Y127200D01*
X1574800Y787199D02*
G01*
X1574800Y663699D01*
X1701800Y787199D02*
G01*
X1701800Y663699D01*
X1828800Y787199D02*
G01*
X1828800Y663699D01*
X1955800Y787199D02*
G01*
X1955800Y663699D01*
D15*
G01*
X2405989Y558800D03*
G01*
X2165984Y558800D03*
G36*
X2550099Y841298D02*
G01*
X2550099Y736300D01*
X2796600Y736300D01*
X2796600Y841298D01*
G37*
G36*
X2550099Y611299D02*
G01*
X2550099Y506300D01*
X2796600Y506300D01*
X2796600Y611299D01*
G37*
G36*
X2550099Y381299D02*
G01*
X2550099Y276301D01*
X2796600Y276301D01*
X2796600Y381299D01*
G37*
G36*
X3121599Y381800D02*
G01*
X3121599Y735799D01*
X3368100Y735799D01*
X3368100Y381800D01*
G37*
D18*
G01*
X660400Y616102D03*
G01*
X660400Y476097D03*
G01*
X1397000Y616102D03*
G01*
X1397000Y476097D03*
G36*
X2315999Y832401D02*
G01*
X2395999Y832401D01*
X2395999Y742398D01*
X2315999Y742398D01*
G37*
G36*
X2176000Y832401D02*
G01*
X2256000Y832401D01*
X2256000Y742398D01*
X2176000Y742398D01*
G37*
G36*
X2315999Y375201D02*
G01*
X2395999Y375201D01*
X2395999Y285198D01*
X2315999Y285198D01*
G37*
G36*
X2176000Y375201D02*
G01*
X2256000Y375201D01*
X2256000Y285198D01*
X2176000Y285198D01*
G37*
D20*
G01*
X4616704Y613105D03*
G01*
X4806695Y613105D03*
G01*
X4711700Y860094D03*
G01*
X5150104Y613105D03*
G01*
X5340095Y613105D03*
G01*
X5245100Y860094D03*
G01*
X5683504Y613105D03*
G01*
X5873495Y613105D03*
G01*
X5778500Y860094D03*
D21*
G01*
X5150104Y242900D03*
G01*
X5340095Y242900D03*
G01*
X5245100Y442899D03*
G01*
X4616704Y242900D03*
G01*
X4806695Y242900D03*
G01*
X4711700Y442899D03*
G01*
X5683504Y242900D03*
G01*
X5873495Y242900D03*
G01*
X5778500Y442899D03*
D19*
G01*
X3866997Y266700D03*
G01*
X4007002Y266700D03*
M02*
