G04 Layer: TopSolderMaskLayer*
G04 EasyEDA v6.4.25, 2021-12-21T01:05:14+01:00*
G04 e653898a74aa4a6681cb2481073f5018,cb21f8ab935b4f3d81094f1c1df1cea3,10*
G04 Gerber Generator version 0.2*
G04 Scale: 100 percent, Rotated: No, Reflected: No *
G04 Dimensions in millimeters *
G04 leading zeros omitted , absolute positions ,4 integer and 5 decimal *
%FSLAX45Y45*%
%MOMM*%

%ADD32C,1.9016*%
%ADD33C,0.7316*%

%LPD*%
D32*
X168600Y190500D02*
G01*
X288599Y190500D01*
X168600Y431800D02*
G01*
X288599Y431800D01*
X168600Y673100D02*
G01*
X288599Y673100D01*
X168600Y914400D02*
G01*
X288599Y914400D01*
X6201100Y939800D02*
G01*
X6321099Y939800D01*
X6213800Y431800D02*
G01*
X6333799Y431800D01*
X6201100Y685800D02*
G01*
X6321099Y685800D01*
X6213800Y177800D02*
G01*
X6333799Y177800D01*
D33*
X4143499Y444500D02*
G01*
X4266999Y444500D01*
X4143499Y571500D02*
G01*
X4266999Y571500D01*
X4143499Y698500D02*
G01*
X4266999Y698500D01*
X4143499Y825500D02*
G01*
X4266999Y825500D01*
X3607000Y444500D02*
G01*
X3730500Y444500D01*
X3607000Y571500D02*
G01*
X3730500Y571500D01*
X3607000Y698500D02*
G01*
X3730500Y698500D01*
X3607000Y825500D02*
G01*
X3730500Y825500D01*
X838200Y250700D02*
G01*
X838200Y127200D01*
X965200Y250700D02*
G01*
X965200Y127200D01*
X1092200Y250700D02*
G01*
X1092200Y127200D01*
X1219200Y250700D02*
G01*
X1219200Y127200D01*
X838200Y787199D02*
G01*
X838200Y663699D01*
X965200Y787199D02*
G01*
X965200Y663699D01*
X1092200Y787199D02*
G01*
X1092200Y663699D01*
X1219200Y787199D02*
G01*
X1219200Y663699D01*
X1574800Y250700D02*
G01*
X1574800Y127200D01*
X1701800Y250700D02*
G01*
X1701800Y127200D01*
X1828800Y250700D02*
G01*
X1828800Y127200D01*
X1955800Y250700D02*
G01*
X1955800Y127200D01*
X1574800Y787199D02*
G01*
X1574800Y663699D01*
X1701800Y787199D02*
G01*
X1701800Y663699D01*
X1828800Y787199D02*
G01*
X1828800Y663699D01*
X1955800Y787199D02*
G01*
X1955800Y663699D01*
G36*
X2325877Y485647D02*
G01*
X2325877Y631697D01*
X2486152Y631697D01*
X2486152Y485647D01*
G37*
G36*
X2085847Y485647D02*
G01*
X2085847Y631697D01*
X2246122Y631697D01*
X2246122Y485647D01*
G37*
G36*
X2545079Y731265D02*
G01*
X2545079Y846328D01*
X2801620Y846328D01*
X2801620Y731265D01*
G37*
G36*
X2545079Y501142D02*
G01*
X2545079Y616457D01*
X2801620Y616457D01*
X2801620Y501142D01*
G37*
G36*
X2545079Y271271D02*
G01*
X2545079Y386334D01*
X2801620Y386334D01*
X2801620Y271271D01*
G37*
G36*
X3116579Y376681D02*
G01*
X3116579Y740918D01*
X3373120Y740918D01*
X3373120Y376681D01*
G37*
G36*
X610362Y570992D02*
G01*
X610362Y661162D01*
X710437Y661162D01*
X710437Y570992D01*
G37*
G36*
X610362Y431037D02*
G01*
X610362Y521207D01*
X710437Y521207D01*
X710437Y431037D01*
G37*
G36*
X1346962Y570992D02*
G01*
X1346962Y661162D01*
X1447037Y661162D01*
X1447037Y570992D01*
G37*
G36*
X1346962Y431037D02*
G01*
X1346962Y521207D01*
X1447037Y521207D01*
X1447037Y431037D01*
G37*
G36*
X2310891Y737362D02*
G01*
X2310891Y837437D01*
X2401061Y837437D01*
X2401061Y737362D01*
G37*
G36*
X2170938Y737362D02*
G01*
X2170938Y837437D01*
X2261108Y837437D01*
X2261108Y737362D01*
G37*
G36*
X2310891Y280162D02*
G01*
X2310891Y380237D01*
X2401061Y380237D01*
X2401061Y280162D01*
G37*
G36*
X2170938Y280162D02*
G01*
X2170938Y380237D01*
X2261108Y380237D01*
X2261108Y280162D01*
G37*
G36*
X4581652Y554481D02*
G01*
X4581652Y671576D01*
X4651756Y671576D01*
X4651756Y554481D01*
G37*
G36*
X4771643Y554481D02*
G01*
X4771643Y671576D01*
X4841747Y671576D01*
X4841747Y554481D01*
G37*
G36*
X4676647Y801623D02*
G01*
X4676647Y918718D01*
X4746752Y918718D01*
X4746752Y801623D01*
G37*
G36*
X5115052Y554481D02*
G01*
X5115052Y671576D01*
X5185156Y671576D01*
X5185156Y554481D01*
G37*
G36*
X5305043Y554481D02*
G01*
X5305043Y671576D01*
X5375147Y671576D01*
X5375147Y554481D01*
G37*
G36*
X5210047Y801623D02*
G01*
X5210047Y918718D01*
X5280152Y918718D01*
X5280152Y801623D01*
G37*
G36*
X5648452Y554481D02*
G01*
X5648452Y671576D01*
X5718556Y671576D01*
X5718556Y554481D01*
G37*
G36*
X5838443Y554481D02*
G01*
X5838443Y671576D01*
X5908547Y671576D01*
X5908547Y554481D01*
G37*
G36*
X5743447Y801623D02*
G01*
X5743447Y918718D01*
X5813552Y918718D01*
X5813552Y801623D01*
G37*
G36*
X5109972Y175260D02*
G01*
X5109972Y310387D01*
X5190236Y310387D01*
X5190236Y175260D01*
G37*
G36*
X5299963Y175260D02*
G01*
X5299963Y310387D01*
X5380227Y310387D01*
X5380227Y175260D01*
G37*
G36*
X5204968Y375412D02*
G01*
X5204968Y510539D01*
X5285231Y510539D01*
X5285231Y375412D01*
G37*
G36*
X4576572Y175260D02*
G01*
X4576572Y310387D01*
X4656836Y310387D01*
X4656836Y175260D01*
G37*
G36*
X4766563Y175260D02*
G01*
X4766563Y310387D01*
X4846827Y310387D01*
X4846827Y175260D01*
G37*
G36*
X4671568Y375412D02*
G01*
X4671568Y510539D01*
X4751831Y510539D01*
X4751831Y375412D01*
G37*
G36*
X5643372Y175260D02*
G01*
X5643372Y310387D01*
X5723636Y310387D01*
X5723636Y175260D01*
G37*
G36*
X5833363Y175260D02*
G01*
X5833363Y310387D01*
X5913627Y310387D01*
X5913627Y175260D01*
G37*
G36*
X5738368Y375412D02*
G01*
X5738368Y510539D01*
X5818631Y510539D01*
X5818631Y375412D01*
G37*
G36*
X908050Y878839D02*
G01*
X908050Y975360D01*
X998728Y975360D01*
X998728Y878839D01*
G37*
G36*
X1058671Y878839D02*
G01*
X1058671Y975360D01*
X1149350Y975360D01*
X1149350Y878839D01*
G37*
G36*
X1644650Y878839D02*
G01*
X1644650Y975360D01*
X1735328Y975360D01*
X1735328Y878839D01*
G37*
G36*
X1795271Y878839D02*
G01*
X1795271Y975360D01*
X1885950Y975360D01*
X1885950Y878839D01*
G37*
G36*
X4396740Y603250D02*
G01*
X4396740Y693928D01*
X4493259Y693928D01*
X4493259Y603250D01*
G37*
G36*
X4396740Y753871D02*
G01*
X4396740Y844550D01*
X4493259Y844550D01*
X4493259Y753871D01*
G37*
G36*
X4396740Y247650D02*
G01*
X4396740Y338328D01*
X4493259Y338328D01*
X4493259Y247650D01*
G37*
G36*
X4396740Y398271D02*
G01*
X4396740Y488950D01*
X4493259Y488950D01*
X4493259Y398271D01*
G37*
G36*
X4930140Y247650D02*
G01*
X4930140Y338328D01*
X5026659Y338328D01*
X5026659Y247650D01*
G37*
G36*
X4930140Y398271D02*
G01*
X4930140Y488950D01*
X5026659Y488950D01*
X5026659Y398271D01*
G37*
G36*
X4930140Y603250D02*
G01*
X4930140Y693928D01*
X5026659Y693928D01*
X5026659Y603250D01*
G37*
G36*
X4930140Y753871D02*
G01*
X4930140Y844550D01*
X5026659Y844550D01*
X5026659Y753871D01*
G37*
G36*
X5463540Y247650D02*
G01*
X5463540Y338328D01*
X5560059Y338328D01*
X5560059Y247650D01*
G37*
G36*
X5463540Y398271D02*
G01*
X5463540Y488950D01*
X5560059Y488950D01*
X5560059Y398271D01*
G37*
G36*
X5463540Y603250D02*
G01*
X5463540Y693928D01*
X5560059Y693928D01*
X5560059Y603250D01*
G37*
G36*
X5463540Y753871D02*
G01*
X5463540Y844550D01*
X5560059Y844550D01*
X5560059Y753871D01*
G37*
G36*
X3821938Y216662D02*
G01*
X3821938Y316737D01*
X3912108Y316737D01*
X3912108Y216662D01*
G37*
G36*
X3961891Y216662D02*
G01*
X3961891Y316737D01*
X4052061Y316737D01*
X4052061Y216662D01*
G37*
M02*
