G04 Layer: BottomLayer*
G04 EasyEDA v6.4.25, 2021-12-21T01:05:14+01:00*
G04 e653898a74aa4a6681cb2481073f5018,cb21f8ab935b4f3d81094f1c1df1cea3,10*
G04 Gerber Generator version 0.2*
G04 Scale: 100 percent, Rotated: No, Reflected: No *
G04 Dimensions in millimeters *
G04 leading zeros omitted , absolute positions ,4 integer and 5 decimal *
%FSLAX45Y45*%
%MOMM*%

%ADD10C,0.2540*%
%ADD11C,0.8000*%
%ADD12C,1.8000*%
%ADD14C,0.6110*%
%ADD24C,2.0000*%

%LPD*%
G36*
X36068Y25908D02*
G01*
X32156Y26670D01*
X28905Y28905D01*
X26670Y32156D01*
X25908Y36068D01*
X25908Y1063955D01*
X26670Y1067816D01*
X28905Y1071118D01*
X32156Y1073302D01*
X36068Y1074115D01*
X4755794Y1074115D01*
X4759909Y1073251D01*
X4763312Y1070762D01*
X4765446Y1067155D01*
X4765903Y1063040D01*
X4764684Y1059027D01*
X4761941Y1055827D01*
X4758182Y1054049D01*
X4754829Y1053236D01*
X4745278Y1049274D01*
X4736490Y1043889D01*
X4728311Y1036929D01*
X4665370Y973988D01*
X4658410Y965809D01*
X4653026Y957021D01*
X4649063Y947470D01*
X4646625Y937412D01*
X4645812Y926693D01*
X4645812Y906221D01*
X4644948Y902157D01*
X4642561Y898804D01*
X4639056Y896670D01*
X4634992Y896061D01*
X4630978Y897178D01*
X4627778Y899769D01*
X4624324Y903935D01*
X4561535Y966724D01*
X4555337Y971854D01*
X4548632Y975410D01*
X4541418Y977595D01*
X4533392Y978408D01*
X4343908Y978408D01*
X4335881Y977595D01*
X4328668Y975410D01*
X4321962Y971854D01*
X4315764Y966724D01*
X4278376Y929335D01*
X4273245Y923137D01*
X4269689Y916432D01*
X4267504Y909218D01*
X4266692Y901192D01*
X4266692Y820318D01*
X4265930Y816406D01*
X4263694Y813104D01*
X4208322Y757732D01*
X4205427Y755700D01*
X4202023Y754786D01*
X4193895Y754075D01*
X4184396Y751535D01*
X4175506Y747369D01*
X4167428Y741730D01*
X4160469Y734771D01*
X4154830Y726694D01*
X4150664Y717804D01*
X4148124Y708304D01*
X4147261Y698500D01*
X4148124Y688695D01*
X4150664Y679196D01*
X4154830Y670306D01*
X4160469Y662228D01*
X4167428Y655269D01*
X4175506Y649630D01*
X4184396Y645464D01*
X4187647Y644601D01*
X4191558Y642569D01*
X4194251Y639064D01*
X4195216Y634796D01*
X4194251Y630478D01*
X4191558Y627024D01*
X4187647Y624992D01*
X4185970Y624535D01*
X4177029Y620369D01*
X4169003Y614730D01*
X4162044Y607771D01*
X4156405Y599694D01*
X4152239Y590804D01*
X4149699Y581304D01*
X4148836Y571500D01*
X4149699Y561695D01*
X4152239Y552196D01*
X4156405Y543306D01*
X4162044Y535228D01*
X4169003Y528269D01*
X4177029Y522630D01*
X4185970Y518464D01*
X4195470Y515924D01*
X4205224Y515061D01*
X4215028Y515924D01*
X4224528Y518464D01*
X4233468Y522630D01*
X4241495Y528269D01*
X4248454Y535228D01*
X4254093Y543306D01*
X4258259Y552196D01*
X4260799Y561695D01*
X4261510Y569823D01*
X4262424Y573227D01*
X4264456Y576122D01*
X4383024Y694690D01*
X4388154Y700938D01*
X4391710Y707593D01*
X4393895Y714806D01*
X4394708Y722833D01*
X4394708Y747166D01*
X4395673Y751484D01*
X4398314Y754989D01*
X4402226Y757021D01*
X4406646Y757174D01*
X4410710Y755497D01*
X4416806Y751230D01*
X4425696Y747064D01*
X4435195Y744524D01*
X4443323Y743813D01*
X4446727Y742899D01*
X4449622Y740867D01*
X4543094Y647395D01*
X4545330Y644093D01*
X4546092Y640181D01*
X4546092Y515010D01*
X4545330Y511098D01*
X4543094Y507796D01*
X4541469Y506171D01*
X4535830Y498093D01*
X4531664Y489204D01*
X4529124Y479704D01*
X4528261Y469900D01*
X4529124Y460095D01*
X4531664Y450596D01*
X4535830Y441706D01*
X4541469Y433628D01*
X4548428Y426669D01*
X4556506Y421030D01*
X4565396Y416864D01*
X4574895Y414324D01*
X4584700Y413461D01*
X4594504Y414324D01*
X4604004Y416864D01*
X4612894Y421030D01*
X4620971Y426669D01*
X4627930Y433628D01*
X4633569Y441706D01*
X4637735Y450596D01*
X4640275Y460095D01*
X4641138Y469900D01*
X4640275Y479704D01*
X4637735Y489204D01*
X4633569Y498093D01*
X4627930Y506171D01*
X4626305Y507796D01*
X4624070Y511098D01*
X4623308Y515010D01*
X4623308Y632815D01*
X4624171Y636930D01*
X4626610Y640334D01*
X4630166Y642467D01*
X4634331Y642975D01*
X4638344Y641756D01*
X4646168Y637438D01*
X4653381Y635304D01*
X4661408Y634492D01*
X4749292Y634492D01*
X4757318Y635304D01*
X4764532Y637489D01*
X4771237Y641045D01*
X4777435Y646176D01*
X4888941Y757631D01*
X4892243Y759866D01*
X4896154Y760628D01*
X4933289Y760628D01*
X4937201Y759866D01*
X4940503Y757631D01*
X4942128Y756005D01*
X4950206Y750366D01*
X4959096Y746201D01*
X4968595Y743661D01*
X4977638Y742899D01*
X4981041Y741984D01*
X4983937Y739952D01*
X5038394Y685495D01*
X5040630Y682193D01*
X5041392Y678281D01*
X5041392Y508508D01*
X5042204Y500481D01*
X5044389Y493268D01*
X5047945Y486562D01*
X5053076Y480364D01*
X5058867Y474522D01*
X5060899Y471627D01*
X5061813Y468223D01*
X5062524Y460095D01*
X5065064Y450596D01*
X5069230Y441706D01*
X5074869Y433628D01*
X5081828Y426669D01*
X5089906Y421030D01*
X5098796Y416864D01*
X5108295Y414324D01*
X5118100Y413461D01*
X5127904Y414324D01*
X5137404Y416864D01*
X5146294Y421030D01*
X5154371Y426669D01*
X5161330Y433628D01*
X5166969Y441706D01*
X5171135Y450596D01*
X5173675Y460095D01*
X5174538Y469900D01*
X5173675Y479704D01*
X5171135Y489204D01*
X5166969Y498093D01*
X5161330Y506171D01*
X5154371Y513130D01*
X5146294Y518769D01*
X5137404Y522935D01*
X5124297Y526491D01*
X5121300Y528726D01*
X5119319Y531926D01*
X5118608Y535584D01*
X5118608Y697992D01*
X5117795Y706018D01*
X5115610Y713232D01*
X5112054Y719937D01*
X5106924Y726135D01*
X5037531Y795578D01*
X5035499Y798474D01*
X5034584Y801878D01*
X5033975Y809040D01*
X5031435Y818540D01*
X5027269Y827430D01*
X5021630Y835507D01*
X5014671Y842467D01*
X5011572Y844600D01*
X5008676Y847699D01*
X5007305Y851763D01*
X5007711Y855980D01*
X5009845Y859688D01*
X5013248Y862177D01*
X5017414Y863092D01*
X5377281Y863092D01*
X5381193Y862330D01*
X5384495Y860094D01*
X5455005Y789584D01*
X5456631Y787450D01*
X5457647Y785012D01*
X5458764Y780796D01*
X5462930Y771906D01*
X5468569Y763828D01*
X5475528Y756869D01*
X5483606Y751230D01*
X5492496Y747064D01*
X5501995Y744524D01*
X5510123Y743813D01*
X5513527Y742899D01*
X5516422Y740867D01*
X5571794Y685495D01*
X5574030Y682193D01*
X5574792Y678281D01*
X5574792Y508508D01*
X5575604Y500481D01*
X5577789Y493268D01*
X5581345Y486562D01*
X5586476Y480364D01*
X5592267Y474522D01*
X5594299Y471627D01*
X5595213Y468223D01*
X5595924Y460095D01*
X5598464Y450596D01*
X5602630Y441706D01*
X5608269Y433628D01*
X5615228Y426669D01*
X5623306Y421030D01*
X5632196Y416864D01*
X5641695Y414324D01*
X5651500Y413461D01*
X5661304Y414324D01*
X5670804Y416864D01*
X5679694Y421030D01*
X5687771Y426669D01*
X5694730Y433628D01*
X5700369Y441706D01*
X5704535Y450596D01*
X5707075Y460095D01*
X5707938Y469900D01*
X5707075Y479704D01*
X5704535Y489204D01*
X5700369Y498093D01*
X5694730Y506171D01*
X5687771Y513130D01*
X5679694Y518769D01*
X5670804Y522935D01*
X5657697Y526491D01*
X5654700Y528726D01*
X5652719Y531926D01*
X5652008Y535584D01*
X5652008Y697992D01*
X5651195Y706018D01*
X5649010Y713232D01*
X5645454Y719937D01*
X5640324Y726135D01*
X5571032Y795477D01*
X5569000Y798372D01*
X5568086Y801776D01*
X5567375Y809904D01*
X5564835Y819403D01*
X5560669Y828294D01*
X5555030Y836371D01*
X5548071Y843330D01*
X5539994Y848969D01*
X5531104Y853135D01*
X5521604Y855675D01*
X5511800Y856538D01*
X5503164Y855776D01*
X5498795Y856335D01*
X5495086Y858723D01*
X5446471Y907338D01*
X5444236Y910640D01*
X5443474Y914552D01*
X5444236Y918413D01*
X5446471Y921715D01*
X5449773Y923899D01*
X5453634Y924712D01*
X5725464Y924712D01*
X5729478Y923848D01*
X5732830Y921512D01*
X5735015Y918057D01*
X5735624Y913993D01*
X5734608Y910031D01*
X5725210Y898804D01*
X5719826Y890016D01*
X5715863Y880465D01*
X5713425Y870407D01*
X5712612Y859688D01*
X5712612Y800506D01*
X5713425Y789787D01*
X5715863Y779729D01*
X5719826Y770178D01*
X5725210Y761390D01*
X5732170Y753211D01*
X5744311Y741070D01*
X5752490Y734110D01*
X5761278Y728726D01*
X5770829Y724763D01*
X5780887Y722325D01*
X5791606Y721512D01*
X6051804Y721512D01*
X6055664Y720699D01*
X6058966Y718515D01*
X6138011Y639470D01*
X6146190Y632510D01*
X6154978Y627126D01*
X6164529Y623163D01*
X6174587Y620725D01*
X6185306Y619912D01*
X6336893Y619912D01*
X6347612Y620725D01*
X6357670Y623163D01*
X6367221Y627126D01*
X6376009Y632510D01*
X6383883Y639216D01*
X6390589Y647090D01*
X6395974Y655878D01*
X6399936Y665429D01*
X6402374Y675487D01*
X6403187Y685800D01*
X6402374Y696112D01*
X6399936Y706170D01*
X6395974Y715721D01*
X6390589Y724509D01*
X6383883Y732383D01*
X6376009Y739089D01*
X6367221Y744474D01*
X6357670Y748436D01*
X6347612Y750874D01*
X6336893Y751687D01*
X6216396Y751687D01*
X6212535Y752500D01*
X6209233Y754684D01*
X6130188Y833729D01*
X6122009Y840689D01*
X6113221Y846074D01*
X6103670Y850036D01*
X6093612Y852474D01*
X6082893Y853287D01*
X5854293Y853287D01*
X5850585Y853998D01*
X5847384Y856030D01*
X5845149Y859028D01*
X5844184Y862685D01*
X5843574Y870407D01*
X5841136Y880465D01*
X5837174Y890016D01*
X5831789Y898804D01*
X5822391Y910031D01*
X5821375Y913993D01*
X5821984Y918057D01*
X5824169Y921512D01*
X5827522Y923848D01*
X5831535Y924712D01*
X5962904Y924712D01*
X5966764Y923899D01*
X5970066Y921715D01*
X5998311Y893470D01*
X6006490Y886510D01*
X6015278Y881126D01*
X6024829Y877163D01*
X6034887Y874725D01*
X6045606Y873912D01*
X6336893Y873912D01*
X6347612Y874725D01*
X6357670Y877163D01*
X6367221Y881126D01*
X6376009Y886510D01*
X6383883Y893216D01*
X6390589Y901090D01*
X6395974Y909878D01*
X6399936Y919429D01*
X6402374Y929487D01*
X6403187Y939800D01*
X6402374Y950112D01*
X6399936Y960170D01*
X6395974Y969721D01*
X6390589Y978509D01*
X6383883Y986383D01*
X6376009Y993089D01*
X6367221Y998474D01*
X6357670Y1002436D01*
X6347612Y1004874D01*
X6336893Y1005687D01*
X6076696Y1005687D01*
X6072835Y1006500D01*
X6069533Y1008684D01*
X6041288Y1036929D01*
X6033109Y1043889D01*
X6024321Y1049274D01*
X6014770Y1053236D01*
X6011418Y1054049D01*
X6007658Y1055827D01*
X6004915Y1059027D01*
X6003696Y1063040D01*
X6004153Y1067155D01*
X6006287Y1070762D01*
X6009690Y1073251D01*
X6013805Y1074115D01*
X6463944Y1074115D01*
X6467805Y1073302D01*
X6471107Y1071118D01*
X6473342Y1067816D01*
X6474104Y1063955D01*
X6474104Y36068D01*
X6473342Y32156D01*
X6471107Y28905D01*
X6467805Y26670D01*
X6463944Y25908D01*
G37*

%LPC*%
G36*
X851052Y51866D02*
G01*
X6273495Y51866D01*
X6288989Y52832D01*
X6303924Y55575D01*
X6318453Y60096D01*
X6332321Y66344D01*
X6345326Y74218D01*
X6357264Y83566D01*
X6368034Y94335D01*
X6377381Y106273D01*
X6385255Y119329D01*
X6387846Y122174D01*
X6400444Y128066D01*
X6408521Y133705D01*
X6415481Y140665D01*
X6421120Y148742D01*
X6425285Y157632D01*
X6427825Y167132D01*
X6428689Y176936D01*
X6427825Y186740D01*
X6425285Y196240D01*
X6421120Y205130D01*
X6415481Y213207D01*
X6408521Y220167D01*
X6400444Y225806D01*
X6390640Y230327D01*
X6387693Y232410D01*
X6377381Y249326D01*
X6368034Y261264D01*
X6357264Y272034D01*
X6345326Y281381D01*
X6332321Y289255D01*
X6318453Y295503D01*
X6303924Y300024D01*
X6288989Y302768D01*
X6273495Y303682D01*
X3646728Y303682D01*
X3642868Y304495D01*
X3639565Y306679D01*
X3637330Y309981D01*
X3636568Y313842D01*
X3637330Y317754D01*
X3639565Y321056D01*
X3697224Y378764D01*
X3702354Y384962D01*
X3705910Y391668D01*
X3708095Y398881D01*
X3708908Y406908D01*
X3708908Y653389D01*
X3709670Y657301D01*
X3711905Y660603D01*
X3713530Y662228D01*
X3719169Y670306D01*
X3723335Y679196D01*
X3725875Y688695D01*
X3726738Y698500D01*
X3725875Y708304D01*
X3723335Y717804D01*
X3719169Y726694D01*
X3713530Y734771D01*
X3706571Y741730D01*
X3698494Y747369D01*
X3689604Y751535D01*
X3679951Y754126D01*
X3676294Y755954D01*
X3673652Y759104D01*
X3672433Y763016D01*
X3672941Y767130D01*
X3674973Y770686D01*
X3678275Y773125D01*
X3685794Y776630D01*
X3693871Y782269D01*
X3700830Y789228D01*
X3706469Y797306D01*
X3710635Y806196D01*
X3713175Y815695D01*
X3714038Y825500D01*
X3713175Y835304D01*
X3710635Y844803D01*
X3706469Y853694D01*
X3700830Y861771D01*
X3693871Y868730D01*
X3685794Y874369D01*
X3676904Y878535D01*
X3667404Y881075D01*
X3657600Y881938D01*
X3647795Y881075D01*
X3638296Y878535D01*
X3629406Y874369D01*
X3621328Y868730D01*
X3614369Y861771D01*
X3608730Y853694D01*
X3604564Y844803D01*
X3602024Y835304D01*
X3601313Y827176D01*
X3600399Y823772D01*
X3598367Y820877D01*
X3554476Y776935D01*
X3549345Y770737D01*
X3545789Y764032D01*
X3543604Y756818D01*
X3542792Y748792D01*
X3542792Y477418D01*
X3542029Y473506D01*
X3539794Y470204D01*
X3504895Y435305D01*
X3501593Y433070D01*
X3497681Y432308D01*
X2801518Y432308D01*
X2797606Y433070D01*
X2794304Y435305D01*
X2745435Y484124D01*
X2739237Y489254D01*
X2732532Y492810D01*
X2725318Y494995D01*
X2717292Y495808D01*
X2604008Y495808D01*
X2595981Y494995D01*
X2588768Y492810D01*
X2582062Y489254D01*
X2575864Y484124D01*
X2526995Y435305D01*
X2523693Y433070D01*
X2519781Y432308D01*
X2000910Y432308D01*
X1996998Y433070D01*
X1993696Y435305D01*
X1992071Y436930D01*
X1983993Y442569D01*
X1975104Y446735D01*
X1965604Y449275D01*
X1955800Y450138D01*
X1945995Y449275D01*
X1936496Y446735D01*
X1927606Y442569D01*
X1919528Y436930D01*
X1912569Y429971D01*
X1906930Y421893D01*
X1902764Y413004D01*
X1900224Y403504D01*
X1899361Y393700D01*
X1900224Y383895D01*
X1900834Y381609D01*
X1901139Y377901D01*
X1900072Y374345D01*
X1897837Y371398D01*
X1894687Y369468D01*
X1891030Y368808D01*
X959510Y368808D01*
X955598Y369570D01*
X952296Y371805D01*
X950671Y373430D01*
X942594Y379069D01*
X933703Y383235D01*
X924204Y385775D01*
X914400Y386638D01*
X904595Y385775D01*
X895096Y383235D01*
X886206Y379069D01*
X878128Y373430D01*
X871169Y366471D01*
X865428Y358241D01*
X862177Y355244D01*
X857961Y353923D01*
X853592Y354482D01*
X849884Y356870D01*
X813053Y393700D01*
X807364Y399034D01*
X801522Y403910D01*
X795426Y408432D01*
X789025Y412546D01*
X782421Y416306D01*
X775563Y419608D01*
X768553Y422503D01*
X761339Y424992D01*
X754024Y427024D01*
X746607Y428650D01*
X739089Y429768D01*
X731520Y430479D01*
X723747Y430682D01*
X228904Y430682D01*
X213410Y429768D01*
X198475Y427024D01*
X183946Y422503D01*
X181965Y421589D01*
X177800Y420725D01*
X168910Y420725D01*
X154076Y419760D01*
X139801Y417068D01*
X125933Y412546D01*
X112776Y406349D01*
X100482Y398576D01*
X89255Y389280D01*
X79298Y378663D01*
X70764Y366877D01*
X63754Y354126D01*
X58369Y340614D01*
X54762Y326491D01*
X52933Y312064D01*
X52933Y297535D01*
X54762Y283108D01*
X58369Y268986D01*
X63754Y255473D01*
X70764Y242722D01*
X79298Y230936D01*
X89255Y220319D01*
X100482Y211023D01*
X112776Y203250D01*
X125933Y197053D01*
X139801Y192532D01*
X154076Y189839D01*
X168910Y188874D01*
X177800Y188874D01*
X181965Y188010D01*
X183946Y187096D01*
X198475Y182575D01*
X213410Y179832D01*
X228904Y178866D01*
X667562Y178866D01*
X671423Y178104D01*
X674725Y175920D01*
X761746Y88900D01*
X767435Y83566D01*
X773277Y78689D01*
X779373Y74168D01*
X785774Y70053D01*
X792378Y66294D01*
X799236Y62991D01*
X806246Y60096D01*
X813460Y57607D01*
X820775Y55575D01*
X828192Y53949D01*
X835710Y52832D01*
X843280Y52120D01*
G37*
G36*
X571500Y642061D02*
G01*
X581304Y642924D01*
X590804Y645464D01*
X599694Y649630D01*
X607771Y655269D01*
X609396Y656894D01*
X612698Y659130D01*
X616610Y659892D01*
X1028192Y659892D01*
X1036218Y660704D01*
X1043432Y662889D01*
X1050137Y666445D01*
X1056335Y671576D01*
X1087577Y702767D01*
X1090472Y704799D01*
X1093876Y705713D01*
X1102004Y706424D01*
X1111504Y708964D01*
X1120394Y713130D01*
X1128471Y718769D01*
X1135430Y725728D01*
X1141069Y733806D01*
X1145235Y742696D01*
X1147775Y752195D01*
X1148638Y762000D01*
X1147775Y771804D01*
X1145235Y781304D01*
X1141069Y790194D01*
X1135430Y798271D01*
X1128471Y805230D01*
X1120394Y810869D01*
X1111504Y815035D01*
X1102004Y817575D01*
X1092200Y818438D01*
X1082395Y817575D01*
X1072896Y815035D01*
X1064006Y810869D01*
X1055928Y805230D01*
X1048969Y798271D01*
X1043330Y790194D01*
X1039164Y781304D01*
X1038504Y778814D01*
X1036472Y774903D01*
X1033018Y772210D01*
X1028700Y771296D01*
X1024382Y772210D01*
X1020927Y774903D01*
X1018895Y778814D01*
X1018235Y781304D01*
X1014069Y790194D01*
X1008430Y798271D01*
X1001471Y805230D01*
X993394Y810869D01*
X984503Y815035D01*
X975004Y817575D01*
X965200Y818438D01*
X955395Y817575D01*
X945896Y815035D01*
X937006Y810869D01*
X928928Y805230D01*
X927303Y803605D01*
X924001Y801370D01*
X920089Y800608D01*
X756310Y800608D01*
X752398Y801370D01*
X749096Y803605D01*
X747471Y805230D01*
X739394Y810869D01*
X730504Y815035D01*
X721004Y817575D01*
X711200Y818438D01*
X701395Y817575D01*
X691896Y815035D01*
X683006Y810869D01*
X674928Y805230D01*
X667969Y798271D01*
X662330Y790194D01*
X658164Y781304D01*
X655624Y771804D01*
X654761Y762000D01*
X655624Y752195D01*
X656234Y749909D01*
X656539Y746201D01*
X655472Y742645D01*
X653237Y739698D01*
X650087Y737768D01*
X646430Y737108D01*
X616610Y737108D01*
X612698Y737870D01*
X609396Y740105D01*
X607771Y741730D01*
X599694Y747369D01*
X590804Y751535D01*
X581304Y754075D01*
X571500Y754938D01*
X561695Y754075D01*
X552196Y751535D01*
X543306Y747369D01*
X535228Y741730D01*
X528269Y734771D01*
X522630Y726694D01*
X518464Y717804D01*
X515924Y708304D01*
X515061Y698500D01*
X515924Y688695D01*
X518464Y679196D01*
X522630Y670306D01*
X528269Y662228D01*
X535228Y655269D01*
X543306Y649630D01*
X552196Y645464D01*
X561695Y642924D01*
G37*
G36*
X309930Y661009D02*
G01*
X317398Y662432D01*
X331266Y666953D01*
X344424Y673150D01*
X356717Y680923D01*
X367944Y690219D01*
X377901Y700836D01*
X386435Y712622D01*
X392379Y723341D01*
X309930Y723341D01*
G37*
G36*
X147269Y661009D02*
G01*
X147269Y723341D01*
X64820Y723341D01*
X70764Y712622D01*
X79298Y700836D01*
X89255Y690219D01*
X100482Y680923D01*
X112776Y673150D01*
X125933Y666953D01*
X139801Y662432D01*
G37*
G36*
X1486408Y799592D02*
G01*
X1752092Y799592D01*
X1760118Y800404D01*
X1767332Y802589D01*
X1774037Y806145D01*
X1780235Y811276D01*
X1836877Y867867D01*
X1839772Y869899D01*
X1843176Y870813D01*
X1851304Y871524D01*
X1860804Y874064D01*
X1869693Y878230D01*
X1877771Y883869D01*
X1884730Y890828D01*
X1890369Y898906D01*
X1894535Y907796D01*
X1897075Y917295D01*
X1897938Y927100D01*
X1897075Y936904D01*
X1894535Y946403D01*
X1890369Y955294D01*
X1884730Y963371D01*
X1877771Y970330D01*
X1869693Y975969D01*
X1860804Y980135D01*
X1851304Y982675D01*
X1841500Y983538D01*
X1831695Y982675D01*
X1822196Y980135D01*
X1813306Y975969D01*
X1805228Y970330D01*
X1798269Y963371D01*
X1792630Y955294D01*
X1788464Y946403D01*
X1785924Y936904D01*
X1785213Y928776D01*
X1784299Y925372D01*
X1782267Y922477D01*
X1759610Y899820D01*
X1755902Y897432D01*
X1751533Y896874D01*
X1747316Y898194D01*
X1744116Y901141D01*
X1742389Y905205D01*
X1742592Y909624D01*
X1744675Y917295D01*
X1745538Y927100D01*
X1744675Y936904D01*
X1742135Y946403D01*
X1737969Y955294D01*
X1732330Y963371D01*
X1725371Y970330D01*
X1717293Y975969D01*
X1708404Y980135D01*
X1698904Y982675D01*
X1690776Y983386D01*
X1687372Y984300D01*
X1684477Y986332D01*
X1653235Y1017524D01*
X1647037Y1022654D01*
X1640332Y1026210D01*
X1633118Y1028395D01*
X1625092Y1029208D01*
X807110Y1029208D01*
X803198Y1029969D01*
X799896Y1032205D01*
X798271Y1033830D01*
X790194Y1039469D01*
X781304Y1043635D01*
X771804Y1046175D01*
X762000Y1047038D01*
X752195Y1046175D01*
X742696Y1043635D01*
X733806Y1039469D01*
X725728Y1033830D01*
X718769Y1026871D01*
X713130Y1018794D01*
X708964Y1009903D01*
X706424Y1000404D01*
X705561Y990600D01*
X706424Y980795D01*
X708964Y971296D01*
X713130Y962406D01*
X718769Y954328D01*
X725728Y947369D01*
X733806Y941730D01*
X742696Y937564D01*
X749808Y935685D01*
X753008Y934161D01*
X755497Y931671D01*
X757021Y928471D01*
X757326Y924966D01*
X756361Y914400D01*
X757224Y904595D01*
X759764Y895096D01*
X763930Y886206D01*
X769569Y878128D01*
X776528Y871169D01*
X784606Y865530D01*
X793496Y861364D01*
X802995Y858824D01*
X812800Y857961D01*
X822604Y858824D01*
X832103Y861364D01*
X840994Y865530D01*
X849071Y871169D01*
X850696Y872794D01*
X853998Y875030D01*
X857910Y875792D01*
X1389481Y875792D01*
X1393393Y875030D01*
X1396695Y872794D01*
X1458264Y811276D01*
X1464462Y806145D01*
X1471168Y802589D01*
X1478381Y800404D01*
G37*
G36*
X309930Y826058D02*
G01*
X392379Y826058D01*
X386435Y836777D01*
X377901Y848563D01*
X367944Y859180D01*
X356717Y868476D01*
X344424Y876249D01*
X331266Y882446D01*
X317398Y886968D01*
X309930Y888390D01*
G37*
G36*
X64820Y826058D02*
G01*
X147269Y826058D01*
X147269Y888390D01*
X139801Y886968D01*
X125933Y882446D01*
X112776Y876249D01*
X100482Y868476D01*
X89255Y859180D01*
X79298Y848563D01*
X70764Y836777D01*
G37*

%LPD*%
D10*
X1955800Y393700D02*
G01*
X2540000Y393700D01*
X2603500Y457200D01*
X2717800Y457200D01*
X2781300Y393700D01*
X3517900Y393700D01*
X3581400Y457200D01*
X3581400Y749300D01*
X3657600Y825500D01*
X914400Y330200D02*
G01*
X2552700Y330200D01*
X2628900Y406400D01*
X2679700Y406400D01*
X2755900Y330200D01*
X3594100Y330200D01*
X3670300Y406400D01*
X3670300Y698500D01*
X2654300Y330200D02*
G01*
X2654300Y241300D01*
X2590800Y177800D01*
X2484627Y177800D01*
X4203700Y698500D02*
G01*
X4305300Y800100D01*
X4305300Y901700D01*
X4343400Y939800D01*
X4533900Y939800D01*
X4597400Y876300D01*
X4597400Y812800D01*
X4686300Y723900D01*
X4737100Y723900D01*
X4914900Y901700D01*
X5397500Y901700D01*
X5499100Y800100D01*
X5511800Y800100D01*
X4205249Y571500D02*
G01*
X4356100Y722350D01*
X4356100Y863600D01*
X4381500Y889000D01*
X4508500Y889000D01*
X4533900Y863600D01*
X4533900Y800100D01*
X4660900Y673100D01*
X4749800Y673100D01*
X4875936Y799236D01*
X4978400Y799236D01*
D11*
X5778500Y800100D02*
G01*
X5791200Y787400D01*
X6083300Y787400D01*
X6184900Y685800D01*
X6261100Y685800D01*
X6261100Y685800D02*
G01*
X6337300Y685800D01*
X5778500Y860094D02*
G01*
X5778500Y800100D01*
X4711700Y800100D02*
G01*
X4711700Y927100D01*
X4775200Y990600D01*
X5994400Y990600D01*
X6045200Y939800D01*
X6177513Y939800D01*
X6177513Y939800D02*
G01*
X6255529Y939800D01*
X6255529Y939800D02*
G01*
X6337300Y939800D01*
D10*
X571500Y698500D02*
G01*
X1028700Y698500D01*
X1092200Y762000D01*
X711200Y762000D02*
G01*
X965200Y762000D01*
X812800Y914400D02*
G01*
X1409700Y914400D01*
X1485900Y838200D01*
X1752600Y838200D01*
X1841500Y927100D01*
X762000Y990600D02*
G01*
X1625600Y990600D01*
X1689100Y927100D01*
X5651500Y469900D02*
G01*
X5613400Y508000D01*
X5613400Y698500D01*
X5511800Y800100D01*
X4978400Y799236D02*
G01*
X4979263Y799236D01*
X5080000Y698500D01*
X5080000Y508000D01*
X5118100Y469900D01*
X4584700Y469900D02*
G01*
X4584700Y660400D01*
X4445000Y800100D01*
D24*
X6273800Y177800D02*
G01*
X850900Y177800D01*
X723900Y304800D01*
X228600Y304800D01*
D12*
X168600Y304800D02*
G01*
X288599Y304800D01*
X168600Y774700D02*
G01*
X288599Y774700D01*
D14*
G01*
X762000Y990600D03*
G01*
X1689100Y927100D03*
G01*
X812800Y914400D03*
G01*
X1841500Y927100D03*
G01*
X711200Y762000D03*
G01*
X965200Y762000D03*
G01*
X571500Y698500D03*
G01*
X1092200Y762000D03*
G01*
X5651500Y469900D03*
G01*
X5511800Y800100D03*
G01*
X4978400Y799236D03*
G01*
X5118100Y469900D03*
G01*
X4584700Y469900D03*
G01*
X4445000Y800100D03*
G01*
X4205249Y571500D03*
G01*
X4203700Y698500D03*
G01*
X6273800Y177800D03*
G01*
X1955800Y393700D03*
G01*
X6372250Y176936D03*
G01*
X6181293Y175056D03*
G01*
X2654300Y330200D03*
G01*
X4711700Y800100D03*
G01*
X4711700Y860094D03*
G01*
X6337300Y939800D03*
G01*
X6255537Y939800D03*
G01*
X6177508Y939800D03*
G01*
X5778500Y800100D03*
G01*
X5778500Y860094D03*
G01*
X6337300Y685800D03*
G01*
X6261100Y685800D03*
G01*
X6184900Y685800D03*
G01*
X4807356Y617778D03*
G01*
X4807965Y540080D03*
G01*
X5337809Y681989D03*
G01*
X5340095Y613105D03*
G01*
X5339079Y546100D03*
G01*
X5867400Y685800D03*
G01*
X5867400Y607009D03*
G01*
X5867400Y546100D03*
G01*
X3657600Y825500D03*
G01*
X914400Y330200D03*
G01*
X3670300Y698500D03*
G01*
X2673350Y788796D03*
G01*
X2586939Y787603D03*
G01*
X2754579Y787603D03*
G01*
X2673299Y906983D03*
G01*
X2674543Y680923D03*
G01*
X2891739Y906983D03*
G01*
X2893009Y786333D03*
G01*
X2893009Y680923D03*
M02*
