G04 Layer: BottomSilkLayer*
G04 EasyEDA v6.4.25, 2021-12-21T01:05:14+01:00*
G04 e653898a74aa4a6681cb2481073f5018,cb21f8ab935b4f3d81094f1c1df1cea3,10*
G04 Gerber Generator version 0.2*
G04 Scale: 100 percent, Rotated: No, Reflected: No *
G04 Dimensions in millimeters *
G04 leading zeros omitted , absolute positions ,4 integer and 5 decimal *
%FSLAX45Y45*%
%MOMM*%

%ADD28C,0.1520*%
%ADD29C,0.5000*%
%ADD30C,0.1400*%
%ADD31C,0.1800*%

%LPD*%
G36*
X6196533Y828141D02*
G01*
X6189268Y826769D01*
X6185763Y825906D01*
X6181496Y824484D01*
X6173012Y820826D01*
X6163970Y816254D01*
X6129578Y783844D01*
X6111290Y760323D01*
X6090208Y731418D01*
X6075324Y709574D01*
X5971133Y709117D01*
X5954826Y733552D01*
X5947714Y743661D01*
X5936691Y758291D01*
X5929172Y767638D01*
X5921603Y776579D01*
X5914034Y785012D01*
X5906516Y792886D01*
X5899099Y800201D01*
X5882081Y816254D01*
X5862929Y826008D01*
X5841085Y826008D01*
X5821730Y808482D01*
X5802426Y769366D01*
X5788050Y712317D01*
X5782208Y670864D01*
X5778296Y639673D01*
X5776823Y626211D01*
X5774334Y597662D01*
X5760262Y575005D01*
X5754674Y564946D01*
X5749544Y554532D01*
X5744870Y543814D01*
X5740603Y532790D01*
X5736844Y521563D01*
X5733592Y510184D01*
X5730849Y498703D01*
X5728079Y483666D01*
X5824169Y483666D01*
X5824169Y507593D01*
X5827623Y516178D01*
X5828741Y518109D01*
X5829858Y519379D01*
X5830773Y519836D01*
X5846216Y513130D01*
X5880811Y497128D01*
X5929020Y474472D01*
X5928360Y471322D01*
X5927293Y469290D01*
X5925449Y467004D01*
X6123025Y467004D01*
X6124854Y468528D01*
X6137402Y475234D01*
X6221679Y514858D01*
X6223355Y512165D01*
X6224016Y510032D01*
X6224524Y506323D01*
X6224879Y501446D01*
X6224981Y482600D01*
X6220002Y472948D01*
X6215430Y465328D01*
X6209995Y458978D01*
X6203391Y453491D01*
X6195314Y448614D01*
X6186881Y444144D01*
X6153150Y444144D01*
X6144717Y448614D01*
X6137656Y452983D01*
X6130594Y458470D01*
X6125159Y463600D01*
X6123025Y467004D01*
X5925449Y467004D01*
X5921248Y462330D01*
X5906465Y448360D01*
X5884316Y442163D01*
X5860592Y445008D01*
X5853480Y448665D01*
X5850128Y450697D01*
X5846165Y453542D01*
X5842152Y456844D01*
X5838545Y460146D01*
X5830722Y467969D01*
X5824169Y483666D01*
X5728079Y483666D01*
X5726988Y475742D01*
X5724804Y452729D01*
X5691581Y458216D01*
X5679084Y459536D01*
X5665317Y459689D01*
X5659831Y449478D01*
X5664962Y438150D01*
X5674512Y436219D01*
X5709310Y430580D01*
X5717286Y429006D01*
X5722975Y427634D01*
X5725515Y426618D01*
X5726277Y424942D01*
X5728004Y417423D01*
X5730240Y400354D01*
X5689244Y392684D01*
X5678982Y390499D01*
X5671261Y388569D01*
X5667197Y387197D01*
X5662726Y384810D01*
X5662726Y370433D01*
X5673648Y365455D01*
X5712104Y372313D01*
X5728817Y374904D01*
X5732424Y375259D01*
X5736234Y375208D01*
X5745429Y354685D01*
X5748629Y346710D01*
X5748934Y345389D01*
X5713333Y333959D01*
X5857595Y333959D01*
X5859119Y347472D01*
X5870702Y354838D01*
X5896762Y370535D01*
X5905703Y389890D01*
X5908243Y394716D01*
X5910427Y398221D01*
X5911951Y399999D01*
X5913475Y400710D01*
X5918301Y401675D01*
X5927445Y401878D01*
X5935065Y394309D01*
X5935065Y379933D01*
X5927750Y365810D01*
X5946343Y356565D01*
X5960160Y350621D01*
X5979617Y343560D01*
X6035243Y341020D01*
X6048095Y343763D01*
X6054496Y345389D01*
X6062472Y347827D01*
X6071006Y350723D01*
X6097168Y361035D01*
X6106261Y358140D01*
X6114034Y346252D01*
X6108547Y334111D01*
X6093460Y327101D01*
X6086398Y324053D01*
X6078270Y320903D01*
X6070041Y318058D01*
X6062776Y315874D01*
X6047079Y311658D01*
X5984443Y311658D01*
X5946140Y322580D01*
X5908954Y341934D01*
X5899708Y336296D01*
X5890768Y331165D01*
X5883198Y327558D01*
X5876798Y325424D01*
X5871464Y324764D01*
X5865926Y324764D01*
X5857595Y333959D01*
X5713333Y333959D01*
X5690463Y326644D01*
X5687415Y322834D01*
X5686247Y321005D01*
X5685332Y318871D01*
X5684672Y316687D01*
X5684418Y314706D01*
X5684418Y310388D01*
X5695746Y302971D01*
X5762498Y324510D01*
X5790031Y296316D01*
X5809538Y283108D01*
X5818784Y277317D01*
X5828284Y271881D01*
X5838037Y266801D01*
X5848045Y262077D01*
X5858357Y257657D01*
X5869025Y253542D01*
X5880049Y249783D01*
X5891479Y246278D01*
X5903315Y243078D01*
X5915558Y240182D01*
X5928309Y237540D01*
X5941568Y235153D01*
X5955334Y233019D01*
X5990691Y228346D01*
X6062624Y228346D01*
X6097168Y233222D01*
X6111544Y235610D01*
X6125413Y238302D01*
X6138824Y241300D01*
X6151727Y244602D01*
X6164173Y248208D01*
X6176162Y252171D01*
X6187744Y256438D01*
X6198870Y261010D01*
X6209538Y265938D01*
X6219850Y271221D01*
X6229705Y276809D01*
X6239154Y282803D01*
X6248247Y289102D01*
X6256934Y295757D01*
X6265265Y302717D01*
X6284163Y320192D01*
X6337960Y303174D01*
X6346799Y307898D01*
X6349796Y317347D01*
X6345072Y326136D01*
X6314389Y336042D01*
X6302146Y340614D01*
X6300012Y341782D01*
X6300165Y343560D01*
X6301232Y347268D01*
X6305600Y358190D01*
X6312103Y372973D01*
X6316116Y372973D01*
X6324803Y371856D01*
X6360058Y365353D01*
X6371234Y370433D01*
X6371234Y384810D01*
X6366764Y387197D01*
X6363309Y388467D01*
X6357112Y390093D01*
X6340195Y393649D01*
X6318097Y397662D01*
X6319723Y404063D01*
X6321145Y412800D01*
X6323431Y430377D01*
X6344716Y433984D01*
X6355537Y435406D01*
X6363970Y435609D01*
X6368796Y440435D01*
X6372148Y444601D01*
X6373418Y448513D01*
X6372504Y452323D01*
X6369558Y456184D01*
X6365494Y460298D01*
X6343142Y457962D01*
X6332016Y456438D01*
X6323736Y454558D01*
X6320739Y489813D01*
X6310477Y530809D01*
X6298844Y555701D01*
X6294069Y565200D01*
X6288938Y574649D01*
X6284163Y582879D01*
X6272733Y600659D01*
X6267754Y647090D01*
X6265265Y666800D01*
X6262522Y685444D01*
X6259576Y702970D01*
X6256324Y719429D01*
X6252870Y734771D01*
X6249162Y748944D01*
X6245199Y762000D01*
X6240983Y773938D01*
X6236614Y784656D01*
X6231940Y794258D01*
X6227064Y802690D01*
X6224574Y806450D01*
X6219393Y813104D01*
X6213957Y818489D01*
X6211214Y820775D01*
X6208369Y822756D01*
X6202527Y825753D01*
G37*
D28*
X532897Y190500D02*
G01*
X538231Y200913D01*
X553725Y216407D01*
X444759Y216407D01*
X527817Y256031D02*
G01*
X532897Y256031D01*
X543311Y261112D01*
X548645Y266445D01*
X553725Y276860D01*
X553725Y297434D01*
X548645Y307847D01*
X543311Y313181D01*
X532897Y318262D01*
X522483Y318262D01*
X512069Y313181D01*
X496575Y302768D01*
X444759Y250697D01*
X444759Y323595D01*
X553725Y357886D02*
G01*
X444759Y399287D01*
X553725Y440944D02*
G01*
X444759Y399287D01*
X476046Y836467D02*
G01*
X465655Y841664D01*
X455264Y852055D01*
X450070Y862444D01*
X450070Y883226D01*
X455264Y893617D01*
X465655Y904008D01*
X476046Y909205D01*
X491634Y914400D01*
X517611Y914400D01*
X533196Y909205D01*
X543587Y904008D01*
X553979Y893617D01*
X559173Y883226D01*
X559173Y862444D01*
X553979Y852055D01*
X543587Y841664D01*
X533196Y836467D01*
X517611Y836467D01*
X517611Y862444D02*
G01*
X517611Y836467D01*
X450070Y802177D02*
G01*
X559173Y802177D01*
X450070Y802177D02*
G01*
X559173Y729442D01*
X450070Y729442D02*
G01*
X559173Y729442D01*
X450070Y695152D02*
G01*
X559173Y695152D01*
X450070Y695152D02*
G01*
X450070Y658784D01*
X455264Y643196D01*
X465655Y632805D01*
X476046Y627611D01*
X491634Y622414D01*
X517611Y622414D01*
X533196Y627611D01*
X543587Y632805D01*
X553979Y643196D01*
X559173Y658784D01*
X559173Y695152D01*
D29*
X5301772Y838855D02*
G01*
X5333591Y870673D01*
X5381317Y886581D01*
X5444954Y886581D01*
X5492681Y870673D01*
X5524500Y838855D01*
X5524500Y807036D01*
X5508591Y775218D01*
X5492681Y759310D01*
X5460862Y743399D01*
X5365409Y711580D01*
X5333591Y695672D01*
X5317683Y679762D01*
X5301772Y647946D01*
X5301772Y600217D01*
X5333591Y568401D01*
X5381317Y552490D01*
X5444954Y552490D01*
X5492681Y568401D01*
X5524500Y600217D01*
X5196773Y886581D02*
G01*
X5196773Y552490D01*
X5196773Y886581D02*
G01*
X4989954Y886581D01*
X5196773Y727491D02*
G01*
X5069499Y727491D01*
X5196773Y552490D02*
G01*
X4989954Y552490D01*
X4884953Y886581D02*
G01*
X4884953Y552490D01*
X4884953Y886581D02*
G01*
X4741773Y886581D01*
X4694044Y870673D01*
X4678136Y854763D01*
X4662228Y822944D01*
X4662228Y791126D01*
X4678136Y759310D01*
X4694044Y743399D01*
X4741773Y727491D01*
X4884953Y727491D02*
G01*
X4741773Y727491D01*
X4694044Y711580D01*
X4678136Y695672D01*
X4662228Y663854D01*
X4662228Y616127D01*
X4678136Y584309D01*
X4694044Y568401D01*
X4741773Y552490D01*
X4884953Y552490D01*
X4557227Y695672D02*
G01*
X4270862Y695672D01*
X4165864Y886581D02*
G01*
X4165864Y552490D01*
X4165864Y886581D02*
G01*
X3943136Y552490D01*
X3943136Y886581D02*
G01*
X3943136Y552490D01*
X3647226Y775218D02*
G01*
X3647226Y552490D01*
X3647226Y727491D02*
G01*
X3679045Y759310D01*
X3710863Y775218D01*
X3758590Y775218D01*
X3790408Y759310D01*
X3822227Y727491D01*
X3838135Y679762D01*
X3838135Y647946D01*
X3822227Y600217D01*
X3790408Y568401D01*
X3758590Y552490D01*
X3710863Y552490D01*
X3679045Y568401D01*
X3647226Y600217D01*
X3367227Y727491D02*
G01*
X3383135Y759310D01*
X3430864Y775218D01*
X3478590Y775218D01*
X3526317Y759310D01*
X3542228Y727491D01*
X3526317Y695672D01*
X3494498Y679762D01*
X3414953Y663854D01*
X3383135Y647946D01*
X3367227Y616127D01*
X3367227Y600217D01*
X3383135Y568401D01*
X3430864Y552490D01*
X3478590Y552490D01*
X3526317Y568401D01*
X3542228Y600217D01*
X3071317Y727491D02*
G01*
X3103135Y759310D01*
X3134954Y775218D01*
X3182680Y775218D01*
X3214499Y759310D01*
X3246318Y727491D01*
X3262226Y679762D01*
X3262226Y647946D01*
X3246318Y600217D01*
X3214499Y568401D01*
X3182680Y552490D01*
X3134954Y552490D01*
X3103135Y568401D01*
X3071317Y600217D01*
X2966318Y886581D02*
G01*
X2966318Y552490D01*
X2966318Y711580D02*
G01*
X2918592Y759310D01*
X2886773Y775218D01*
X2839044Y775218D01*
X2807228Y759310D01*
X2791317Y711580D01*
X2791317Y552490D01*
X2686319Y886581D02*
G01*
X2686319Y552490D01*
X2527226Y775218D02*
G01*
X2686319Y616127D01*
X2622682Y679762D02*
G01*
X2511318Y552490D01*
X2215408Y775218D02*
G01*
X2215408Y552490D01*
X2215408Y727491D02*
G01*
X2247226Y759310D01*
X2279045Y775218D01*
X2326772Y775218D01*
X2358590Y759310D01*
X2390409Y727491D01*
X2406317Y679762D01*
X2406317Y647946D01*
X2390409Y600217D01*
X2358590Y568401D01*
X2326772Y552490D01*
X2279045Y552490D01*
X2247226Y568401D01*
X2215408Y600217D01*
X2062680Y886581D02*
G01*
X2062680Y616127D01*
X2046772Y568401D01*
X2014954Y552490D01*
X1983135Y552490D01*
X2110409Y775218D02*
G01*
X1999046Y775218D01*
X1703136Y775218D02*
G01*
X1878136Y552490D01*
X1878136Y775218D02*
G01*
X1703136Y775218D01*
X1878136Y552490D02*
G01*
X1703136Y552490D01*
X1598137Y679762D02*
G01*
X1407226Y679762D01*
X1407226Y711580D01*
X1423136Y743399D01*
X1439044Y759310D01*
X1470863Y775218D01*
X1518589Y775218D01*
X1550408Y759310D01*
X1582226Y727491D01*
X1598137Y679762D01*
X1598137Y647946D01*
X1582226Y600217D01*
X1550408Y568401D01*
X1518589Y552490D01*
X1470863Y552490D01*
X1439044Y568401D01*
X1407226Y600217D01*
X1302227Y775218D02*
G01*
X1302227Y552490D01*
X1302227Y711580D02*
G01*
X1254500Y759310D01*
X1222682Y775218D01*
X1174955Y775218D01*
X1143137Y759310D01*
X1127226Y711580D01*
X1127226Y552490D01*
D30*
X5537200Y261137D02*
G01*
X5521291Y194317D01*
X5505381Y261137D02*
G01*
X5521291Y194317D01*
X5505381Y261137D02*
G01*
X5489473Y194317D01*
X5473562Y261137D02*
G01*
X5489473Y194317D01*
X5408018Y251592D02*
G01*
X5414380Y257954D01*
X5423926Y261137D01*
X5436654Y261137D01*
X5446199Y257954D01*
X5452564Y251592D01*
X5452564Y245226D01*
X5449382Y238864D01*
X5446199Y235681D01*
X5439836Y232498D01*
X5420746Y226136D01*
X5414380Y222953D01*
X5411200Y219773D01*
X5408018Y213408D01*
X5408018Y203862D01*
X5414380Y197500D01*
X5423926Y194317D01*
X5436654Y194317D01*
X5446199Y197500D01*
X5452564Y203862D01*
X5383837Y245226D02*
G01*
X5383837Y248409D01*
X5380654Y254772D01*
X5377472Y257954D01*
X5371109Y261137D01*
X5358381Y261137D01*
X5352018Y257954D01*
X5348836Y254772D01*
X5345653Y248409D01*
X5345653Y242044D01*
X5348836Y235681D01*
X5355198Y226136D01*
X5387017Y194317D01*
X5342473Y194317D01*
X5302382Y261137D02*
G01*
X5311927Y257954D01*
X5318290Y248409D01*
X5321472Y232498D01*
X5321472Y222953D01*
X5318290Y207045D01*
X5311927Y197500D01*
X5302382Y194317D01*
X5296019Y194317D01*
X5286471Y197500D01*
X5280108Y207045D01*
X5276926Y222953D01*
X5276926Y232498D01*
X5280108Y248409D01*
X5286471Y257954D01*
X5296019Y261137D01*
X5302382Y261137D01*
X5252745Y245226D02*
G01*
X5252745Y248409D01*
X5249562Y254772D01*
X5246382Y257954D01*
X5240017Y261137D01*
X5227292Y261137D01*
X5220926Y257954D01*
X5217744Y254772D01*
X5214564Y248409D01*
X5214564Y242044D01*
X5217744Y235681D01*
X5224109Y226136D01*
X5255928Y194317D01*
X5211381Y194317D01*
X5190380Y248409D02*
G01*
X5184018Y251592D01*
X5174472Y261137D01*
X5174472Y194317D01*
X5104472Y261137D02*
G01*
X5104472Y194317D01*
X5104472Y261137D02*
G01*
X5063109Y261137D01*
X5104472Y229318D02*
G01*
X5079017Y229318D01*
X5104472Y194317D02*
G01*
X5063109Y194317D01*
X5042108Y238864D02*
G01*
X5042108Y194317D01*
X5042108Y226136D02*
G01*
X5032562Y235681D01*
X5026200Y238864D01*
X5016654Y238864D01*
X5010289Y235681D01*
X5007109Y226136D01*
X5007109Y194317D01*
X5007109Y226136D02*
G01*
X4997564Y235681D01*
X4991199Y238864D01*
X4981653Y238864D01*
X4975291Y235681D01*
X4972108Y226136D01*
X4972108Y194317D01*
X4951110Y261137D02*
G01*
X4951110Y194317D01*
X4951110Y229318D02*
G01*
X4944745Y235681D01*
X4938382Y238864D01*
X4928836Y238864D01*
X4922471Y235681D01*
X4916109Y229318D01*
X4912926Y219773D01*
X4912926Y213408D01*
X4916109Y203862D01*
X4922471Y197500D01*
X4928836Y194317D01*
X4938382Y194317D01*
X4944745Y197500D01*
X4951110Y203862D01*
X4891928Y219773D02*
G01*
X4853744Y219773D01*
X4853744Y226136D01*
X4856927Y232498D01*
X4860109Y235681D01*
X4866472Y238864D01*
X4876017Y238864D01*
X4882382Y235681D01*
X4888745Y229318D01*
X4891928Y219773D01*
X4891928Y213408D01*
X4888745Y203862D01*
X4882382Y197500D01*
X4876017Y194317D01*
X4866472Y194317D01*
X4860109Y197500D01*
X4853744Y203862D01*
X4794562Y261137D02*
G01*
X4794562Y194317D01*
X4794562Y229318D02*
G01*
X4800927Y235681D01*
X4807290Y238864D01*
X4816835Y238864D01*
X4823200Y235681D01*
X4829563Y229318D01*
X4832746Y219773D01*
X4832746Y213408D01*
X4829563Y203862D01*
X4823200Y197500D01*
X4816835Y194317D01*
X4807290Y194317D01*
X4800927Y197500D01*
X4794562Y203862D01*
X4735382Y261137D02*
G01*
X4735382Y194317D01*
X4735382Y229318D02*
G01*
X4741745Y235681D01*
X4748108Y238864D01*
X4757653Y238864D01*
X4764018Y235681D01*
X4770381Y229318D01*
X4773564Y219773D01*
X4773564Y213408D01*
X4770381Y203862D01*
X4764018Y197500D01*
X4757653Y194317D01*
X4748108Y194317D01*
X4741745Y197500D01*
X4735382Y203862D01*
X4714382Y219773D02*
G01*
X4676200Y219773D01*
X4676200Y226136D01*
X4679381Y232498D01*
X4682563Y235681D01*
X4688926Y238864D01*
X4698471Y238864D01*
X4704836Y235681D01*
X4711199Y229318D01*
X4714382Y219773D01*
X4714382Y213408D01*
X4711199Y203862D01*
X4704836Y197500D01*
X4698471Y194317D01*
X4688926Y194317D01*
X4682563Y197500D01*
X4676200Y203862D01*
X4617018Y261137D02*
G01*
X4617018Y194317D01*
X4617018Y229318D02*
G01*
X4623381Y235681D01*
X4629744Y238864D01*
X4639289Y238864D01*
X4645654Y235681D01*
X4652017Y229318D01*
X4655200Y219773D01*
X4655200Y213408D01*
X4652017Y203862D01*
X4645654Y197500D01*
X4639289Y194317D01*
X4629744Y194317D01*
X4623381Y197500D01*
X4617018Y203862D01*
X4502472Y251592D02*
G01*
X4508835Y257954D01*
X4518380Y261137D01*
X4531108Y261137D01*
X4540653Y257954D01*
X4547019Y251592D01*
X4547019Y245226D01*
X4543836Y238864D01*
X4540653Y235681D01*
X4534291Y232498D01*
X4515200Y226136D01*
X4508835Y222953D01*
X4505655Y219773D01*
X4502472Y213408D01*
X4502472Y203862D01*
X4508835Y197500D01*
X4518380Y194317D01*
X4531108Y194317D01*
X4540653Y197500D01*
X4547019Y203862D01*
X4478291Y238864D02*
G01*
X4459201Y194317D01*
X4440107Y238864D02*
G01*
X4459201Y194317D01*
X4465563Y181589D01*
X4471926Y175226D01*
X4478291Y172044D01*
X4481471Y172044D01*
X4384108Y229318D02*
G01*
X4387291Y235681D01*
X4396836Y238864D01*
X4406381Y238864D01*
X4415927Y235681D01*
X4419109Y229318D01*
X4415927Y222953D01*
X4409564Y219773D01*
X4393653Y216590D01*
X4387291Y213408D01*
X4384108Y207045D01*
X4384108Y203862D01*
X4387291Y197500D01*
X4396836Y194317D01*
X4406381Y194317D01*
X4415927Y197500D01*
X4419109Y203862D01*
X4353562Y261137D02*
G01*
X4353562Y207045D01*
X4350382Y197500D01*
X4344017Y194317D01*
X4337654Y194317D01*
X4363107Y238864D02*
G01*
X4340837Y238864D01*
X4316653Y219773D02*
G01*
X4278472Y219773D01*
X4278472Y226136D01*
X4281655Y232498D01*
X4284835Y235681D01*
X4291200Y238864D01*
X4300745Y238864D01*
X4307108Y235681D01*
X4313473Y229318D01*
X4316653Y219773D01*
X4316653Y213408D01*
X4313473Y203862D01*
X4307108Y197500D01*
X4300745Y194317D01*
X4291200Y194317D01*
X4284835Y197500D01*
X4278472Y203862D01*
X4257471Y238864D02*
G01*
X4257471Y194317D01*
X4257471Y226136D02*
G01*
X4247926Y235681D01*
X4241563Y238864D01*
X4232018Y238864D01*
X4225655Y235681D01*
X4222473Y226136D01*
X4222473Y194317D01*
X4222473Y226136D02*
G01*
X4212927Y235681D01*
X4206562Y238864D01*
X4197017Y238864D01*
X4190654Y235681D01*
X4187471Y226136D01*
X4187471Y194317D01*
X4131472Y229318D02*
G01*
X4134655Y235681D01*
X4144200Y238864D01*
X4153745Y238864D01*
X4163291Y235681D01*
X4166473Y229318D01*
X4163291Y222953D01*
X4156928Y219773D01*
X4141017Y216590D01*
X4134655Y213408D01*
X4131472Y207045D01*
X4131472Y203862D01*
X4134655Y197500D01*
X4144200Y194317D01*
X4153745Y194317D01*
X4163291Y197500D01*
X4166473Y203862D01*
D31*
X5537200Y441200D02*
G01*
X5537200Y336199D01*
X5537200Y441200D02*
G01*
X5497200Y336199D01*
X5457200Y441200D02*
G01*
X5497200Y336199D01*
X5457200Y441200D02*
G01*
X5457200Y336199D01*
X5424200Y441200D02*
G01*
X5419199Y436199D01*
X5414200Y441200D01*
X5419199Y446199D01*
X5424200Y441200D01*
X5419199Y406199D02*
G01*
X5419199Y336199D01*
X5321200Y406199D02*
G01*
X5321200Y336199D01*
X5321200Y391200D02*
G01*
X5331200Y401200D01*
X5341200Y406199D01*
X5356199Y406199D01*
X5366199Y401200D01*
X5376199Y391200D01*
X5381200Y376199D01*
X5381200Y366199D01*
X5376199Y351200D01*
X5366199Y341200D01*
X5356199Y336199D01*
X5341200Y336199D01*
X5331200Y341200D01*
X5321200Y351200D01*
X5211201Y441200D02*
G01*
X5211201Y336199D01*
X5211201Y441200D02*
G01*
X5176199Y441200D01*
X5161201Y436199D01*
X5151198Y426199D01*
X5146200Y416199D01*
X5141198Y401200D01*
X5141198Y376199D01*
X5146200Y361200D01*
X5151198Y351200D01*
X5161201Y341200D01*
X5176199Y336199D01*
X5211201Y336199D01*
X5108199Y376199D02*
G01*
X5048199Y376199D01*
X5048199Y386199D01*
X5053200Y396199D01*
X5058199Y401200D01*
X5068199Y406199D01*
X5083200Y406199D01*
X5093200Y401200D01*
X5103200Y391200D01*
X5108199Y376199D01*
X5108199Y366199D01*
X5103200Y351200D01*
X5093200Y341200D01*
X5083200Y336199D01*
X5068199Y336199D01*
X5058199Y341200D01*
X5048199Y351200D01*
X5015199Y406199D02*
G01*
X5015199Y301200D01*
X5015199Y391200D02*
G01*
X5005199Y401200D01*
X4995199Y406199D01*
X4980200Y406199D01*
X4970200Y401200D01*
X4960200Y391200D01*
X4955199Y376199D01*
X4955199Y366199D01*
X4960200Y351200D01*
X4970200Y341200D01*
X4980200Y336199D01*
X4995199Y336199D01*
X5005199Y341200D01*
X5015199Y351200D01*
X4907201Y441200D02*
G01*
X4907201Y356199D01*
X4902200Y341200D01*
X4892200Y336199D01*
X4882200Y336199D01*
X4922199Y406199D02*
G01*
X4887198Y406199D01*
X4789200Y406199D02*
G01*
X4789200Y336199D01*
X4789200Y391200D02*
G01*
X4799200Y401200D01*
X4809200Y406199D01*
X4824199Y406199D01*
X4834199Y401200D01*
X4844199Y391200D01*
X4849200Y376199D01*
X4849200Y366199D01*
X4844199Y351200D01*
X4834199Y341200D01*
X4824199Y336199D01*
X4809200Y336199D01*
X4799200Y341200D01*
X4789200Y351200D01*
X4746200Y356199D02*
G01*
X4751199Y351200D01*
X4756200Y356199D01*
X4751199Y361200D01*
X4746200Y356199D01*
X4746200Y346199D01*
X4756200Y336199D01*
X4636201Y441200D02*
G01*
X4636201Y336199D01*
X4636201Y336199D02*
G01*
X4576201Y336199D01*
X4543198Y376199D02*
G01*
X4483199Y376199D01*
X4483199Y386199D01*
X4488200Y396199D01*
X4493199Y401200D01*
X4503199Y406199D01*
X4518200Y406199D01*
X4528200Y401200D01*
X4538200Y391200D01*
X4543198Y376199D01*
X4543198Y366199D01*
X4538200Y351200D01*
X4528200Y341200D01*
X4518200Y336199D01*
X4503199Y336199D01*
X4493199Y341200D01*
X4483199Y351200D01*
X4425200Y406199D02*
G01*
X4435200Y401200D01*
X4445200Y391200D01*
X4450199Y376199D01*
X4450199Y366199D01*
X4445200Y351200D01*
X4435200Y341200D01*
X4425200Y336199D01*
X4410199Y336199D01*
X4400199Y341200D01*
X4390199Y351200D01*
X4385200Y366199D01*
X4385200Y376199D01*
X4390199Y391200D01*
X4400199Y401200D01*
X4410199Y406199D01*
X4425200Y406199D01*
X4352201Y406199D02*
G01*
X4352201Y336199D01*
X4352201Y386199D02*
G01*
X4337199Y401200D01*
X4327199Y406199D01*
X4312201Y406199D01*
X4302201Y401200D01*
X4297199Y386199D01*
X4297199Y336199D01*
X4264200Y441200D02*
G01*
X4264200Y336199D01*
X4264200Y386199D02*
G01*
X4249199Y401200D01*
X4239199Y406199D01*
X4224200Y406199D01*
X4214200Y401200D01*
X4209199Y386199D01*
X4209199Y336199D01*
X4116199Y406199D02*
G01*
X4116199Y336199D01*
X4116199Y391200D02*
G01*
X4126199Y401200D01*
X4136199Y406199D01*
X4151200Y406199D01*
X4161200Y401200D01*
X4171200Y391200D01*
X4176199Y376199D01*
X4176199Y366199D01*
X4171200Y351200D01*
X4161200Y341200D01*
X4151200Y336199D01*
X4136199Y336199D01*
X4126199Y341200D01*
X4116199Y351200D01*
X4083199Y406199D02*
G01*
X4083199Y336199D01*
X4083199Y376199D02*
G01*
X4078201Y391200D01*
X4068201Y401200D01*
X4058201Y406199D01*
X4043199Y406199D01*
X3950200Y441200D02*
G01*
X3950200Y336199D01*
X3950200Y391200D02*
G01*
X3960200Y401200D01*
X3970200Y406199D01*
X3985199Y406199D01*
X3995199Y401200D01*
X4005199Y391200D01*
X4010200Y376199D01*
X4010200Y366199D01*
X4005199Y351200D01*
X3995199Y341200D01*
X3985199Y336199D01*
X3970200Y336199D01*
X3960200Y341200D01*
X3950200Y351200D01*
X3840200Y441200D02*
G01*
X3840200Y336199D01*
X3840200Y441200D02*
G01*
X3795199Y441200D01*
X3780200Y436199D01*
X3775199Y431200D01*
X3770200Y421200D01*
X3770200Y411200D01*
X3775199Y401200D01*
X3780200Y396199D01*
X3795199Y391200D01*
X3840200Y391200D02*
G01*
X3795199Y391200D01*
X3780200Y386199D01*
X3775199Y381200D01*
X3770200Y371200D01*
X3770200Y356199D01*
X3775199Y346199D01*
X3780200Y341200D01*
X3795199Y336199D01*
X3840200Y336199D01*
X3712199Y406199D02*
G01*
X3722199Y401200D01*
X3732199Y391200D01*
X3737201Y376199D01*
X3737201Y366199D01*
X3732199Y351200D01*
X3722199Y341200D01*
X3712199Y336199D01*
X3697201Y336199D01*
X3687201Y341200D01*
X3677201Y351200D01*
X3672199Y366199D01*
X3672199Y376199D01*
X3677201Y391200D01*
X3687201Y401200D01*
X3697201Y406199D01*
X3712199Y406199D01*
X3584199Y391200D02*
G01*
X3589200Y401200D01*
X3604199Y406199D01*
X3619200Y406199D01*
X3634198Y401200D01*
X3639200Y391200D01*
X3634198Y381200D01*
X3624199Y376199D01*
X3599200Y371200D01*
X3589200Y366199D01*
X3584199Y356199D01*
X3584199Y351200D01*
X3589200Y341200D01*
X3604199Y336199D01*
X3619200Y336199D01*
X3634198Y341200D01*
X3639200Y351200D01*
X3491199Y391200D02*
G01*
X3501199Y401200D01*
X3511199Y406199D01*
X3526200Y406199D01*
X3536200Y401200D01*
X3546200Y391200D01*
X3551199Y376199D01*
X3551199Y366199D01*
X3546200Y351200D01*
X3536200Y341200D01*
X3526200Y336199D01*
X3511199Y336199D01*
X3501199Y341200D01*
X3491199Y351200D01*
X3458199Y441200D02*
G01*
X3458199Y336199D01*
X3458199Y386199D02*
G01*
X3443201Y401200D01*
X3433201Y406199D01*
X3418199Y406199D01*
X3408199Y401200D01*
X3403201Y386199D01*
X3403201Y336199D01*
X3360199Y356199D02*
G01*
X3365200Y351200D01*
X3370199Y356199D01*
X3365200Y361200D01*
X3360199Y356199D01*
X3360199Y346199D01*
X3370199Y336199D01*
X3250199Y441200D02*
G01*
X3250199Y336199D01*
X3250199Y441200D02*
G01*
X3180199Y336199D01*
X3180199Y441200D02*
G01*
X3180199Y336199D01*
X3147199Y441200D02*
G01*
X3142200Y436199D01*
X3137199Y441200D01*
X3142200Y446199D01*
X3147199Y441200D01*
X3142200Y406199D02*
G01*
X3142200Y336199D01*
X3044200Y391200D02*
G01*
X3054200Y401200D01*
X3064200Y406199D01*
X3079198Y406199D01*
X3089198Y401200D01*
X3099198Y391200D01*
X3104200Y376199D01*
X3104200Y366199D01*
X3099198Y351200D01*
X3089198Y341200D01*
X3079198Y336199D01*
X3064200Y336199D01*
X3054200Y341200D01*
X3044200Y351200D01*
X2986199Y406199D02*
G01*
X2996199Y401200D01*
X3006199Y391200D01*
X3011200Y376199D01*
X3011200Y366199D01*
X3006199Y351200D01*
X2996199Y341200D01*
X2986199Y336199D01*
X2971200Y336199D01*
X2961200Y341200D01*
X2951200Y351200D01*
X2946199Y366199D01*
X2946199Y376199D01*
X2951200Y391200D01*
X2961200Y401200D01*
X2971200Y406199D01*
X2986199Y406199D01*
X2836199Y441200D02*
G01*
X2836199Y336199D01*
X2836199Y441200D02*
G01*
X2796199Y336199D01*
X2756199Y441200D02*
G01*
X2796199Y336199D01*
X2756199Y441200D02*
G01*
X2756199Y336199D01*
X2663200Y406199D02*
G01*
X2663200Y336199D01*
X2663200Y391200D02*
G01*
X2673200Y401200D01*
X2683200Y406199D01*
X2698198Y406199D01*
X2708198Y401200D01*
X2718198Y391200D01*
X2723200Y376199D01*
X2723200Y366199D01*
X2718198Y351200D01*
X2708198Y341200D01*
X2698198Y336199D01*
X2683200Y336199D01*
X2673200Y341200D01*
X2663200Y351200D01*
X2630200Y406199D02*
G01*
X2630200Y336199D01*
X2630200Y376199D02*
G01*
X2625199Y391200D01*
X2615199Y401200D01*
X2605199Y406199D01*
X2590200Y406199D01*
X2542199Y441200D02*
G01*
X2542199Y356199D01*
X2537200Y341200D01*
X2527200Y336199D01*
X2517200Y336199D01*
X2557200Y406199D02*
G01*
X2522199Y406199D01*
X2484198Y441200D02*
G01*
X2479200Y436199D01*
X2474198Y441200D01*
X2479200Y446199D01*
X2484198Y441200D01*
X2479200Y406199D02*
G01*
X2479200Y336199D01*
X2441199Y406199D02*
G01*
X2441199Y336199D01*
X2441199Y386199D02*
G01*
X2426200Y401200D01*
X2416200Y406199D01*
X2401199Y406199D01*
X2391199Y401200D01*
X2386200Y386199D01*
X2386200Y336199D01*
X2343200Y356199D02*
G01*
X2348199Y351200D01*
X2353200Y356199D01*
X2348199Y361200D01*
X2343200Y356199D01*
X2343200Y346199D01*
X2353200Y336199D01*
X2183201Y441200D02*
G01*
X2183201Y361200D01*
X2188199Y346199D01*
X2193201Y341200D01*
X2203201Y336199D01*
X2213201Y336199D01*
X2223201Y341200D01*
X2228199Y346199D01*
X2233201Y361200D01*
X2233201Y371200D01*
X2090199Y406199D02*
G01*
X2090199Y336199D01*
X2090199Y391200D02*
G01*
X2100199Y401200D01*
X2110198Y406199D01*
X2125200Y406199D01*
X2135200Y401200D01*
X2145200Y391200D01*
X2150198Y376199D01*
X2150198Y366199D01*
X2145200Y351200D01*
X2135200Y341200D01*
X2125200Y336199D01*
X2110198Y336199D01*
X2100199Y341200D01*
X2090199Y351200D01*
X2057199Y441200D02*
G01*
X2057199Y336199D01*
X2007199Y406199D02*
G01*
X2057199Y356199D01*
X2037199Y376199D02*
G01*
X2002200Y336199D01*
X1944199Y406199D02*
G01*
X1954199Y401200D01*
X1964199Y391200D01*
X1969201Y376199D01*
X1969201Y366199D01*
X1964199Y351200D01*
X1954199Y341200D01*
X1944199Y336199D01*
X1929201Y336199D01*
X1919201Y341200D01*
X1909201Y351200D01*
X1904199Y366199D01*
X1904199Y376199D01*
X1909201Y391200D01*
X1919201Y401200D01*
X1929201Y406199D01*
X1944199Y406199D01*
X1871200Y441200D02*
G01*
X1871200Y336199D01*
X1871200Y391200D02*
G01*
X1861200Y401200D01*
X1851200Y406199D01*
X1836199Y406199D01*
X1826199Y401200D01*
X1816199Y391200D01*
X1811200Y376199D01*
X1811200Y366199D01*
X1816199Y351200D01*
X1826199Y341200D01*
X1836199Y336199D01*
X1851200Y336199D01*
X1861200Y341200D01*
X1871200Y351200D01*
X1701200Y441200D02*
G01*
X1701200Y336199D01*
X1701200Y441200D02*
G01*
X1656199Y441200D01*
X1641200Y436199D01*
X1636199Y431200D01*
X1631200Y421200D01*
X1631200Y411200D01*
X1636199Y401200D01*
X1641200Y396199D01*
X1656199Y391200D01*
X1701200Y391200D02*
G01*
X1656199Y391200D01*
X1641200Y386199D01*
X1636199Y381200D01*
X1631200Y371200D01*
X1631200Y356199D01*
X1636199Y346199D01*
X1641200Y341200D01*
X1656199Y336199D01*
X1701200Y336199D01*
X1598201Y441200D02*
G01*
X1593199Y436199D01*
X1588201Y441200D01*
X1593199Y446199D01*
X1598201Y441200D01*
X1593199Y406199D02*
G01*
X1593199Y336199D01*
X1555198Y406199D02*
G01*
X1555198Y336199D01*
X1555198Y376199D02*
G01*
X1550200Y391200D01*
X1540200Y401200D01*
X1530200Y406199D01*
X1515198Y406199D01*
X1482199Y406199D02*
G01*
X1482199Y336199D01*
X1482199Y386199D02*
G01*
X1467200Y401200D01*
X1457200Y406199D01*
X1442199Y406199D01*
X1432199Y401200D01*
X1427200Y386199D01*
X1427200Y336199D01*
X1394200Y376199D02*
G01*
X1334201Y376199D01*
X1334201Y386199D01*
X1339199Y396199D01*
X1344201Y401200D01*
X1354201Y406199D01*
X1369199Y406199D01*
X1379199Y401200D01*
X1389199Y391200D01*
X1394200Y376199D01*
X1394200Y366199D01*
X1389199Y351200D01*
X1379199Y341200D01*
X1369199Y336199D01*
X1354201Y336199D01*
X1344201Y341200D01*
X1334201Y351200D01*
X1301198Y406199D02*
G01*
X1301198Y336199D01*
X1301198Y376199D02*
G01*
X1296200Y391200D01*
X1286200Y401200D01*
X1276200Y406199D01*
X1261198Y406199D01*
M02*
